<svg xmlns="http://www.w3.org/2000/svg" width="1536" height="1024">
<path d="M257 89L263 98L268 92C270.827 101.544 265.561 104.485 261.015 112.004C256.535 119.415 254.024 126.329 254 135" data-len="65.27"/>
<path d="M257 93C254.992 104.626 244.083 111.114 240.8 122C238.23 130.524 241.11 142.422 250.09 146.107C254.205 147.795 258.772 146.375 262.715 148.818C269.031 152.732 272.672 158.235 277 164" data-len="95.66"/>
<path d="M263 98L263 106" data-len="8.00"/>
<path d="M271 104C276.992 118.608 282.594 137.867 265 147" data-len="48.51"/>
<path d="M1185 217C1196.74 218.323 1189.18 231.059 1182 233.991C1174.51 237.048 1167.54 231.379 1162 227C1168.49 221.612 1176.18 220.345 1182.54 215.86C1193.15 208.382 1190.32 193.879 1184 185L1174 199L1170 191C1160.72 197.83 1160 206.77 1155 216L1151 209L1148 213C1140.29 196.773 1153.78 180.776 1150.4 164.133C1149.66 160.508 1144.63 158.595 1142.33 155.956C1136.23 148.962 1136.54 141.136 1140 133L1152 150C1157.38 141.223 1150.93 135.957 1150.19 127C1149.61 119.997 1153.96 114.26 1158 109C1170.02 128.359 1154.74 146.452 1157 167L1175 150C1179.13 163.989 1168.95 172.136 1158 178L1157 167" data-len="455.58"/>
<path d="M483 198C483.555 185.065 488.28 172.781 489.706 160C490.267 154.97 487.273 151.691 486.343 147C484.089 135.621 490.877 128.685 501 125L502 134L508 130C512.63 137.015 512.235 147.306 506.471 153.699C503.42 157.083 498.501 158.767 496.514 163.043C490.248 176.528 490.294 196.372 488.831 211C488.164 217.675 486.133 225.501 488 232C500.066 218.046 495.377 198.238 511 187C526.357 211.956 492.013 221.597 486.434 242C484.407 249.412 485.434 258.358 484.91 266C484.322 274.586 481.582 284.546 482.224 293C482.719 299.523 487.153 305.353 486.901 311.996C486.764 315.603 483.898 317.716 483.403 321.089C481.239 335.822 484.892 354.124 485.91 369C486.381 375.864 485.249 381.877 489 388L500 367C503.307 375.831 502.257 385.858 497.387 394C494.993 398.003 490.381 401.332 489.333 406C486.326 419.388 493.495 440.314 495.155 454C496.292 463.372 498.613 468.384 492 476C487.397 468.017 490.017 457.969 485.686 450.104C482.324 443.999 474.103 441.173 470.11 435C464.911 426.965 471.558 427.063 476.998 431.31C479.34 433.138 481.31 434.753 484 436C485.234 413.463 479.254 388.765 463.471 372.275C455.753 364.212 443.711 365.153 439 353C445.301 351.272 450.296 354.628 456 357C455.697 344.502 448.439 330.264 445.373 318C440.683 299.24 439.844 276.797 432.501 259C427.78 247.559 419.125 238.306 414.453 227C413.194 223.953 410.129 218.583 410.932 215.229C411.917 211.115 418.117 212.201 420.348 214.448C422.566 216.682 427.535 240.48 433.836 231.677C436.815 227.515 442.335 209.801 438.141 205.623C435.651 203.141 432.642 206.098 430 206.561C424.326 207.556 420.25 203.997 419 212" data-len="1040.00"/>
<path d="M501 135C498.23 144.614 493.847 149.642 497 160" data-len="25.91"/>
<path d="M247 145L238 150L247 152C247.017 158.106 249.247 163.955 248.907 170C247.738 190.772 242.175 211.687 238.057 232C236.38 240.274 227.171 244.329 228.253 254C229.546 265.559 240.925 267.281 250 264.25C261.695 260.343 270.816 247.116 275 236C263.499 235.064 249.619 246.445 242 254" data-len="230.81"/>
<path d="M252 147L247 152" data-len="7.07"/>
<path d="M566 184C560.475 173.484 570.935 154.913 579 148C585.509 160.199 568.623 175.666 564.598 187C562.047 194.184 563.488 201.285 559 208C555.647 201.162 554.581 194.565 547 191C543.284 203.69 554.512 207.013 556.806 217.089C558.471 224.398 553.064 235.017 551.152 242C550.344 244.951 547.787 261.095 541.642 256.003C539.154 253.941 541.227 247.865 540.866 245C540.341 240.836 537.712 237.983 535 235C530.64 239.66 527.98 243.486 529 250" data-len="241.87"/>
<path d="M490 153L494 150" data-len="5.00"/>
<path d="M1152 150L1151 160" data-len="10.05"/>
<path d="M264 152L264 159L272 160" data-len="15.06"/>
<path d="M471 152C481.956 161.417 481.037 182.838 472 193C459.765 180.178 461.907 166.298 471 152" data-len="89.71"/>
<path d="M306 156L310 164L316 158C321.42 172.448 331.271 200.801 309 206.543C297.851 209.418 290.489 201.865 279 209C289.759 212.31 289.328 221.712 286.279 232C280.08 252.92 274.383 279.885 262 298C259.553 293.908 249.995 284.023 250.059 295.005C250.095 301.031 253.486 306.694 256 312L262 298" data-len="254.86"/>
<path d="M306 158C300.425 166.765 290.525 178.099 287.932 188C285.475 197.383 293.954 201.837 288 211" data-len="59.01"/>
<path d="M581 159C585.359 165.129 587.896 172.582 585.008 179.999C582.221 187.158 573.844 188.371 571.263 195.018C563.527 214.944 559.164 237.517 553.114 258C552.002 261.767 554.771 266.47 552.929 269.718C550.989 273.137 546.216 272.185 543 272C549.76 287.152 541.439 303.675 537.627 319C536.048 325.343 532.883 332.922 536 339L550 329C554.906 348.644 526.669 351.106 523.482 366C520.534 379.779 521.171 394.972 519.83 409C518.113 426.968 513.425 445.887 515.059 463.981C515.477 468.616 519.665 469.98 521.258 474.019C522.88 478.132 522 483.651 522 488C530.067 483.291 528.986 466.512 530.414 458C533.288 440.859 541.874 422.296 542.428 405.09C542.57 400.688 538.649 396.962 537.118 393C534.383 385.923 535.546 378.589 539 372L545 393C550.244 387.579 551.801 377.941 554.604 371C559.88 357.937 568.272 345.423 572.413 332C575.196 322.978 573.092 315.115 581 308" data-len="627.08"/>
<path d="M263 160C255.043 171.353 255.15 181.506 252.92 195C251.004 206.592 247.925 218.292 247 230C255.61 230.511 264.298 230.554 272 235" data-len="98.11"/>
<path d="M192 188L189 195C183.768 186.66 174.355 176.135 163 178.597C158.354 179.604 155.455 183.867 151 185.092C143.459 187.165 137.786 184.905 132.603 193.004C129.269 198.215 132.407 202.743 133.238 208C134.576 216.474 131.287 220.905 137 229C128.493 232.075 116.669 222.311 114.88 214C113.586 207.991 118.166 204.38 119.259 199C120.312 193.821 118.781 189.293 120.931 184C126.482 170.333 136.527 172.54 148 169.682C154.068 168.171 157.284 161.377 164 161.201C172.746 160.973 185.345 167.502 189.633 175.001C191.627 178.488 191.322 183.445 193.858 186.491C197.865 191.304 203.779 191.161 206.235 198.001C211.808 213.521 195.368 221.18 200 237C212.325 233.433 228.121 227.169 229.359 212C230.057 203.442 223.5 197.703 219.562 191C217.357 187.245 217.807 182.707 215.297 179.015C209.772 170.887 196.876 166.73 188 171" data-len="432.61"/>
<path d="M310 164L310 182" data-len="18.00"/>
<path d="M1134 167C1143.19 177.243 1146.43 198.1 1128 200L1128 212C1119.45 207.526 1125.01 199.317 1123.54 192C1121.8 183.285 1113.32 175.229 1106 171C1099.75 190.761 1116.99 207.874 1129 222C1119.2 227.276 1127.11 235.436 1122 243C1115.24 234.774 1112.48 224.67 1102 220L1101 233C1081.3 233.083 1103.03 255.196 1105 246" data-len="260.11"/>
<path d="M1132 169L1123 189" data-len="21.93"/>
<path d="M1017 200C1008.73 193.104 1005.69 184.206 1010 174C1017.34 179.984 1019.92 188.804 1020 198" data-len="56.04"/>
<path d="M1157 177C1152.03 185.614 1151.78 199.157 1151 209" data-len="32.82"/>
<path d="M136 232L141 242C136.799 243.727 134.296 241.623 130 241.489C118.815 241.142 108.345 243.566 103.005 230C101.728 226.753 102.459 223.272 101.44 220C100.24 216.147 97.2643 213.236 97.1597 209C96.9285 199.635 108.416 191.624 117 193" data-len="104.87"/>
<path d="M189 205C191.525 216.652 180.638 218.759 174.532 226.093C172.115 228.998 170.738 234.841 165.986 233.932C158.703 232.538 158.847 224.018 154.277 219.857C150.254 216.195 144.228 217.918 143.148 210.996C139.885 190.083 180.65 183.432 178 205C185.975 205.293 188.972 202.879 189 195" data-len="145.98"/>
<path d="M475 192L477 200L477 195" data-len="13.25"/>
<path d="M1124 195L1127 199" data-len="5.00"/>
<path d="M1037 229C1041.08 236.18 1043.86 242.281 1040 250C1031.12 235.717 1023.93 209.86 1040 198C1045.74 207.332 1044.39 216.186 1037 224" data-len="107.61"/>
<path d="M1138 199L1143 204" data-len="7.07"/>
<path d="M1174 199L1173 218" data-len="19.03"/>
<path d="M156 218C160.33 213.913 156.501 208.636 160.318 204.109C164.504 199.143 170.019 200.354 167 207" data-len="28.59"/>
<path d="M477 201C483.625 209.215 480.754 217.297 480.09 227C479.043 242.283 479.288 257.753 477.83 273C477.197 279.62 472.341 285.7 473 292" data-len="92.87"/>
<path d="M1225 230C1223.38 217.994 1223.09 209.036 1234 201C1237.72 207.973 1238.36 232.853 1226 231L1222 239L1215 225" data-len="92.99"/>
<path d="M1139 202L1126 217" data-len="19.85"/>
<path d="M1118 203L1121 205" data-len="3.61"/>
<path d="M178 205L160 215" data-len="20.59"/>
<path d="M1018 205L1023 227C1018.02 226.772 1012.92 225.624 1009.39 221.786C1007.23 219.426 1001.6 207.777 1008.15 207.037C1011.9 206.613 1015.67 211.687 1018 214" data-len="67.38"/>
<path d="M559 208L558 213" data-len="5.10"/>
<path d="M306 209C306.438 220.636 309.208 217.172 319 221" data-len="20.34"/>
<path d="M1023 209L1030 223" data-len="15.65"/>
<path d="M308 210L317 219" data-len="12.73"/>
<path d="M134 211L142 215" data-len="8.94"/>
<path d="M573 230C574.06 224.055 577.269 219.135 582.004 215.345C583.735 213.959 587.9 211.014 589.353 214.336C594.071 225.122 574.974 228.98 570.001 232.407C566.291 234.963 564.002 238.864 560 241" data-len="69.04"/>
<path d="M441 215C458.079 207.99 441.757 235.609 440.344 241C439.348 244.801 440.083 249.089 439.576 253C438.024 264.962 443.038 279.49 446.29 291C452.072 311.464 456.473 332.011 463.95 352C467.329 361.033 470.958 372.172 478 379L477.17 349L475.682 323.089L468.804 312L465 287L472 289" data-len="282.03"/>
<path d="M1148 213C1148.18 218.59 1150.07 220.424 1155 217" data-len="11.60"/>
<path d="M1130 216L1129 220" data-len="4.12"/>
<path d="M305 218C301.938 220.749 297.252 222.825 294.934 226.213C289.734 233.816 283.417 253.923 284 263C288.672 259.139 292.479 253.896 298 251.13C301.721 249.265 304.271 251.053 308 250.747C311.202 250.484 313.65 248.102 317 248.163C324.589 248.3 332.437 256.538 331 264C305.501 255.706 283.999 264.042 273.797 290C271.441 295.996 267.372 302.484 269 309C273.084 306.124 276.378 301.684 281 299.657C304.165 289.497 312.416 315.892 322 329" data-len="275.79"/>
<path d="M1156 219L1162 227" data-len="10.00"/>
<path d="M171 234C182.805 234.783 188.021 224.801 198 222" data-len="30.10"/>
<path d="M1141 222C1140.3 256.156 1133.4 290.011 1130.17 324C1127.79 349.055 1129.96 375.009 1130 400C1130.03 421.166 1128.04 444.41 1133 465" data-len="243.91"/>
<path d="M1043 241C1045.93 236.62 1046.82 228.67 1051.51 225.752C1058.21 221.592 1058.16 236.923 1057.2 240C1054.9 247.306 1046.42 249.31 1043.91 256.039C1040.71 264.63 1050.73 280.838 1057.02 285.996C1059.08 287.691 1062.64 291.376 1065.61 290.967C1068.79 290.527 1069.98 284.537 1069.87 282C1069.63 276.285 1059.67 256.524 1070.22 253.346C1078.76 250.776 1080 267.284 1080 272C1082.79 271.589 1086.95 269.655 1089.69 270.697C1093.68 272.219 1092.16 279.996 1091.2 283C1088.09 292.685 1074.94 300.243 1067 292" data-len="222.03"/>
<path d="M1211 224C1208.59 236.449 1207.92 243.967 1219 252L1222 240" data-len="43.86"/>
<path d="M1024 228C1027.49 238.715 1038.05 255.877 1035 267C1027.97 263.215 1026.81 250.981 1020 245.214C1006.41 233.717 1009.65 254.828 1013 262L1004 265C1006.77 273.105 1014.74 285.034 1025 280.987C1028.98 279.418 1034.17 269.502 1038.39 273.377C1045.58 279.972 1043.75 288.928 1045.28 297C1046.72 304.555 1050.52 310.935 1055 317C1042.82 322.975 1023.04 302.296 1032.99 291.644C1035.96 288.463 1040.82 293.108 1043 295" data-len="255.43"/>
<path d="M1158 228C1156.12 235.926 1149.48 239.366 1147.01 246.104C1142.11 259.477 1143.66 276.973 1141.97 291C1140.09 306.537 1134.42 325.511 1139 341C1149.96 333.254 1143.81 327.72 1145.48 317C1146.56 310.033 1150.48 303.961 1154 298C1162.89 304.563 1163.9 313.786 1162 324C1165.97 323.675 1176.03 319.387 1179.31 322.067C1183.67 325.634 1175.72 335.548 1172.98 337.603C1165.81 342.992 1157.27 340.413 1150 337C1146.21 342.035 1139.99 347.082 1137.74 353C1133.48 364.216 1138 383.872 1138 396C1138 429.962 1139.33 464.174 1142 498" data-len="419.68"/>
<path d="M137 229L159 232" data-len="22.20"/>
<path d="M220 231C222.909 244.386 213.205 247.242 204.09 252.934C195.68 258.186 192.932 263.908 182 264C183.299 280.318 189.438 297.173 196 312C213.235 301.731 228.875 302.368 231 278C218.255 277.737 205.322 275.555 196.854 288.015C194.364 291.678 194.083 296.158 192 300" data-len="208.20"/>
<path d="M240 234L246 231" data-len="6.71"/>
<path d="M488 232L486 236" data-len="4.47"/>
<path d="M519 272C516.602 275.685 501.386 286.194 502.122 274.981C502.411 270.582 507.148 266.878 510 264C508.365 262.738 506.614 261.56 505.034 260.231C493.009 250.117 511.831 251.35 514.973 247.338C518.332 243.047 516.426 237.351 521 233L528 243" data-len="94.50"/>
<path d="M1229 233L1227 255L1243 240C1246.99 253.485 1238.9 264.883 1225 265L1227 255" data-len="90.59"/>
<path d="M430 234L424 240" data-len="8.49"/>
<path d="M433 234L439 240" data-len="8.49"/>
<path d="M198 237C191.867 245.629 185.491 245.824 176 247.495C160.821 250.166 154.734 252.752 141 243" data-len="62.10"/>
<path d="M1126 242C1126.61 252.753 1113.12 257.108 1106 250" data-len="27.72"/>
<path d="M1123 243L1126 246" data-len="4.24"/>
<path d="M1141 244L1145 244" data-len="4.00"/>
<path d="M121 245C112.699 262.894 129.592 261.741 142 265.559C158.139 270.526 176.965 270.649 178 248" data-len="85.42"/>
<path d="M1043 246L1045 251" data-len="5.39"/>
<path d="M1127 246C1134.03 256.507 1113.36 281.843 1133 289" data-len="47.67"/>
<path d="M1129 246L1138 248" data-len="9.22"/>
<path d="M1155 282C1153.92 268.332 1152.22 257.082 1165 248L1169 255C1185.46 240.771 1184.75 260.673 1178 272C1180.11 273.196 1183.65 274.14 1184.95 276.313C1190.06 284.823 1173.73 290.436 1168 289.894C1162.89 289.411 1158.69 283.316 1154 283.742C1150.5 284.061 1146.75 288.021 1144 290" data-len="142.89"/>
<path d="M1041 250L1040 256" data-len="6.08"/>
<path d="M1041 250L1044 253" data-len="4.24"/>
<path d="M308 252L303 260" data-len="9.43"/>
<path d="M1219 252C1218.98 259.634 1217.85 268.32 1214 275L1202 259C1198.29 266.033 1195.87 275.584 1200.09 283C1202.77 287.724 1209.42 291.102 1209.41 297C1209.41 305.927 1204.65 314.686 1202.2 323C1198.4 335.872 1196.77 349.356 1192 362C1185.5 354.715 1182.19 361.515 1178.9 368C1174.96 375.773 1173.69 392.32 1178 400C1185.11 394.876 1186.82 387.443 1187 379" data-len="229.09"/>
<path d="M1131 253L1137 258" data-len="7.81"/>
<path d="M1169 255C1169 264.254 1164.62 275.789 1177 273" data-len="25.04"/>
<path d="M526.108 257.086C532.072 254.291 534.908 263.924 529.772 266.802C523.327 270.412 519.805 260.041 526.108 257.086" data-len="32.45"/>
<path d="M546 257L550 261" data-len="5.66"/>
<path d="M176 258L182 264" data-len="8.49"/>
<path d="M970 305L975 315C962.802 315 946.721 308.6 951 293L970 305C969.416 293.622 962.03 285.04 956.108 276C953.797 272.472 949.877 264.7 951.693 260.333C954.261 254.158 963.743 265.52 965 268.004C967.564 273.07 966.463 278.732 968.248 284C971.575 293.814 977.778 304.052 983 313C993.521 304.544 992.922 288.879 982 281L978 300" data-len="244.97"/>
<path d="M1049 275C1051.96 268.489 1049.08 257.433 1059.96 264.593C1061.44 265.571 1062.68 266.819 1064 268" data-len="26.09"/>
<path d="M173 263C179.709 275.556 180.879 295.012 185.344 309C187.306 315.147 190.002 320.272 186 326C188.469 327.497 189.333 328.034 190 325" data-len="71.29"/>
<path d="M284 263L281 267" data-len="5.00"/>
<path d="M1013 263C1018.66 266.514 1024.54 268.053 1031 266" data-len="18.88"/>
<path d="M1127 288C1124.82 297.109 1117.45 294.971 1112.34 288.957C1108.04 283.89 1107.86 278.23 1108.92 272C1109.85 266.514 1111.99 261.756 1117.71 266.533C1119.64 268.142 1121.28 270.177 1123 272" data-len="59.43"/>
<path d="M510 264L517 264" data-len="7.00"/>
<path d="M234 265L232 277" data-len="12.17"/>
<path d="M589 285C588.131 281.383 587.231 262.362 595.61 266.176C598.627 267.549 599.499 273.306 601 276C611.125 266.347 615.698 272.196 613 284C616.326 283.737 620.772 282.224 623.848 284.032C632.184 288.931 618.691 297.315 614 298" data-len="93.06"/>
<path d="M1225 265L1211 320C1215.82 320.452 1218.16 317.637 1221 314C1237.43 321.144 1245.93 293.614 1242 282C1225.19 288.118 1221 297.304 1221 314" data-len="157.21"/>
<path d="M577 299C572.588 298.236 552.124 287.119 563.149 282.618C566.672 281.18 571.435 283.476 575 284C574.192 278 572.938 258.172 583.231 270.995C584.535 272.619 585.727 274.35 587 276" data-len="71.37"/>
<path d="M241 267C240.53 277.926 236.391 288.441 233.884 299C229.521 317.381 225.998 335.947 220.341 354C215.447 369.618 207.073 387.331 212 404C224.229 392.662 226.71 373.494 232.603 359.059C234.1 355.39 239.065 355.469 240.227 351.853C241.692 347.291 238.586 341.859 240.603 337.213C242.033 333.921 246.309 332.545 248.61 329.895C252.805 325.063 255.156 318.238 256 312" data-len="247.17"/>
<path d="M539 269L543 272" data-len="5.00"/>
<path d="M1080 272L1072 282" data-len="12.81"/>
<path d="M529 273C530.504 278.645 537.717 282.363 537.798 288.039C537.98 300.785 531.605 319.727 527.871 332C525.269 340.553 521.394 349.797 527 358" data-len="90.01"/>
<path d="M1168 274L1156 283" data-len="15.00"/>
<path d="M1214 275L1210 293" data-len="18.44"/>
<path d="M600 277L598 286" data-len="9.22"/>
<path d="M517 278C517.006 285.435 517.774 289.951 526 287L525 336" data-len="65.83"/>
<path d="M69 303C78.0667 290.078 90.2624 278.285 107 279.039C116.4 279.463 131.242 287.408 129.788 298.942C129.163 303.894 119.862 304.869 116 305.765C102.675 308.854 82.0339 306.853 69 303" data-len="144.19"/>
<path d="M141.603 280.067C153.518 271.458 175.473 299.453 162.49 309.227C151.656 317.383 140.111 297.187 140.004 289C139.971 286.497 139.237 281.777 141.603 280.067" data-len="92.45"/>
<path d="M529 279L527 286" data-len="7.28"/>
<path d="M203 299C206.536 290.96 213.814 285.002 222 282" data-len="26.19"/>
<path d="M380 301C360.495 300.769 383.578 278.503 394 290C400.645 282.219 408.316 280.625 413 291C420.126 289.304 437.217 293.48 425 301C426.937 303.287 430.736 305.275 431.824 308.1C436.542 320.351 413.875 311.37 411 310" data-len="123.41"/>
<path d="M478 284L482 290" data-len="7.21"/>
<path d="M1052 284L1053 290L1047 290" data-len="12.08"/>
<path d="M606 290L612 285" data-len="7.81"/>
<path d="M540 286L545 287" data-len="5.10"/>
<path d="M412 290L407 294" data-len="6.40"/>
<path d="M520 290L512.83 412L508.985 458L509 475L515 468" data-len="194.59"/>
<path d="M1053 290L1077 339" data-len="54.56"/>
<path d="M94 292C103.68 292.001 113.338 293.436 122 298" data-len="28.92"/>
<path d="M591.015 292.743C601.095 288.835 608.179 304.175 597.981 308.103C587.649 312.081 579.714 297.124 591.015 292.743" data-len="53.48"/>
<path d="M1066 292L1063 305" data-len="13.34"/>
<path d="M155 296L156 301" data-len="5.10"/>
<path d="M1124 296L1130 302" data-len="8.49"/>
<path d="M1199 328C1184.17 321.781 1182.38 310.058 1190 297C1199.6 302.221 1197.92 311.527 1202 320" data-len="64.71"/>
<path d="M620 299C623.631 299.87 636.288 304.781 629.677 309.911C626.272 312.553 620.962 311.826 617 313C626.205 328.852 606.121 328.028 602 315" data-len="63.75"/>
<path d="M225 300L207 372" data-len="74.22"/>
<path d="M392.044 300.858C400.443 297.24 408.634 306.772 398.981 311.682C389.635 316.436 381.801 305.271 392.044 300.858" data-len="45.27"/>
<path d="M576 312C572.834 312.864 569.335 314.78 566.001 314.586C552.092 313.777 566.631 301.589 571 299" data-len="34.67"/>
<path d="M1087 333C1089.91 324.105 1086.42 314.16 1091.44 305.019C1099.17 290.969 1104 314.344 1104 320L1117 316C1119.99 326.149 1113.39 338.487 1102 338.867C1096.27 339.058 1091.77 335.642 1087 333L1081.03 348L1090 374L1103.32 417L1108 433C1119.82 424.653 1122.15 410.348 1113 399L1103 414" data-len="281.00"/>
<path d="M130 301C131.196 303.242 131.242 303.196 129 302" data-len="3.97"/>
<path d="M415 301L425 301" data-len="10.00"/>
<path d="M376 313C370.813 316.713 355.475 317.763 361.948 307.213C363.984 303.895 368.667 302.58 372 301" data-len="34.91"/>
<path d="M132 303L144 307" data-len="12.65"/>
<path d="M1240 305C1256.24 305.013 1246.99 320.105 1237 324.362C1230.21 327.256 1224.09 322.037 1218 324.576C1214.01 326.239 1209.94 329.046 1208.11 333.04C1200.18 350.305 1205.27 383.842 1186 392" data-len="128.64"/>
<path d="M143 307C142.085 311.679 147.108 310.58 150 309" data-len="9.79"/>
<path d="M252 351C239.267 374.858 220.988 397.794 212.104 424C207.375 437.951 211.883 456.106 205 469C193.3 461.411 203.562 451.595 200.227 441.144C199.146 437.759 193.479 436.482 191 434C193.783 432.161 199.14 431.448 200.972 428.683C204.749 422.983 201.529 410.388 201.09 404C199.497 380.877 199.742 356.878 186.204 336.985C180.325 328.347 165.587 313.112 154 316C156.312 330.791 139.493 336.298 128 338.6C124.993 339.203 119.391 341.446 116.514 339.802C112.307 337.397 113.633 326.702 114.97 323C119.275 311.077 129.788 308.123 141 309" data-len="417.83"/>
<path d="M1002 352C997.767 344.11 995.792 328.733 997.9 320C999.788 312.174 1005.03 305.223 1010.77 315.001C1017.43 326.345 1008.61 334.814 1005.33 345C1002.49 353.808 1007.13 365.111 1014 371C1019.09 362.719 1015.03 354.141 1016.19 345C1016.56 342.043 1017.94 336.408 1021.33 335.461C1029.99 333.035 1031.97 352.09 1030.97 357C1029.18 365.762 1018.39 369.804 1018.43 379C1018.46 387.395 1028.45 399.789 1032.58 407C1044.54 427.907 1053.88 450.231 1066 471L1068 443C1082.07 449.698 1084.42 463.96 1081.55 478C1080.58 482.732 1077.42 488.187 1077.65 493C1077.95 499.293 1084.62 511.625 1089 516L1092 480C1102.4 489.297 1106.66 505.391 1104.7 519C1103.56 526.883 1099.96 533.806 1101.33 542C1102.96 551.77 1108.75 561.89 1112.58 571C1119.07 586.466 1125.25 602.633 1129 619" data-len="603.23"/>
<path d="M610 309L616 312" data-len="6.71"/>
<path d="M163 310L186 326" data-len="28.02"/>
<path d="M278 310C288.999 311.397 299.251 313.81 308 321" data-len="32.41"/>
<path d="M1068 317C1074.21 306.164 1080.51 313.035 1087 321" data-len="25.18"/>
<path d="M196 312C196.133 328.085 200.737 352.18 207 367" data-len="56.37"/>
<path d="M144 314L127 328" data-len="22.02"/>
<path d="M243 357C249.73 348.028 254.134 337.238 258.576 327C260.316 322.988 262.078 316.114 266.975 314.89C271.617 313.731 279.325 325.341 284 327.482C294.772 332.414 307.662 329.487 319 329" data-len="106.26"/>
<path d="M983 314L998 341" data-len="30.89"/>
<path d="M591 315C588.299 321.647 583.53 331.575 575 328" data-len="23.26"/>
<path d="M975 315L982.478 328L985 337L985 334" data-len="27.34"/>
<path d="M1224 316L1222 323" data-len="7.28"/>
<path d="M422 317C424.107 328.568 416.485 326.742 408 325L415.05 349L436.374 398L446 420" data-len="124.11"/>
<path d="M1040 317C1037.34 318.556 1031.32 319.938 1030.35 323.213C1028.44 329.62 1041.65 333.61 1046 333.903C1052.19 334.319 1056.94 331.1 1062 328L1087 388" data-len="115.05"/>
<path d="M405 318L408 325" data-len="7.62"/>
<path d="M1055 318L1062 328" data-len="12.21"/>
<path d="M368 319C361.409 336.243 377.491 331.667 384 321" data-len="31.16"/>
<path d="M477 320L482 320" data-len="5.00"/>
<path d="M394 321C394.602 324.65 393.3 329.367 394.618 332.714C397.731 340.619 404.912 338.948 407 332" data-len="29.62"/>
<path d="M1103 321C1099.98 326.351 1094.89 329.511 1089 331" data-len="17.70"/>
<path d="M603 322C602.956 334.312 591.385 335.434 590 323" data-len="24.95"/>
<path d="M1162 324L1151 337" data-len="17.03"/>
<path d="M1021 400L994 354C988.166 357.114 975.98 359.59 970.004 355.991C966.956 354.155 955.366 341.971 960.644 338.12C962.518 336.753 966.783 338.023 969 338L969 325L982 335" data-len="138.29"/>
<path d="M515 353C508.551 349.27 504.259 343.893 501.454 337C496.838 325.661 503.726 325.704 510.909 333.039C513.063 335.238 514.976 337.683 517 340" data-len="51.42"/>
<path d="M382 328C380.12 337.811 387.556 341.376 394 334" data-len="21.05"/>
<path d="M580 330C575.737 345.588 566.558 359.987 560.601 375C558.369 380.624 553.665 387.758 558 393C567.714 381.881 575.875 374.596 590 370C591.429 377.636 583.58 385.878 577.996 390.331C564.761 400.885 541.255 406.816 546 429C555.5 421.17 566.333 409.969 580 414C576.394 423.31 567.714 430.381 559 434.752C552.861 437.831 544.737 439.891 540.857 446.04C537.216 451.812 532.662 472.269 534.773 478.852C535.829 482.143 540.076 481.388 541.381 484.317C545.075 492.609 532.127 497.472 527 500" data-len="344.42"/>
<path d="M118 373C118 380.202 118.406 386.945 114 393C109.422 385.173 108.595 375.734 104.543 368.019C103.368 365.782 100.441 362.381 97.6019 364.238C95.161 365.834 94.0793 372.395 92 375C84.3327 368.88 60.5466 370.105 56.6073 381.004C53.9202 388.438 62.0839 393.688 58 401C49.975 396.438 44.3567 395.757 39 404C29.6899 400.379 21.5647 391.956 25.6034 381C27.2071 376.65 31.5933 373.883 34.0054 370C36.627 365.78 37.181 360.801 41.108 357.394C44.8517 354.145 49.7807 354.588 53.5856 351.987C57.7577 349.135 58.7577 343.74 64 341.742C69.6893 339.574 73.6927 343.779 78.9853 343.594C83.3121 343.443 85.7413 337.989 90.0039 336.959C96.6411 335.355 110.684 345.861 114.297 351.04C118.301 356.78 116.102 366.453 120.028 371.397C124.55 377.092 139.302 373.357 138.392 386C137.963 391.957 131.342 394.687 129.644 400C127.551 406.546 132.734 411.434 127.581 417.96C123.561 423.05 112.742 424.957 112.04 432.004C110.865 443.793 124.072 459.205 128 470" data-len="441.28"/>
<path d="M985 337C989.55 341.128 992.367 345.824 993 352C986.592 349.277 985.024 345.686 985 339" data-len="33.93"/>
<path d="M533 338L533 341L536 339" data-len="6.61"/>
<path d="M667 356C686.639 370.617 639.496 371.227 660 356C658.342 354.481 656.567 353.084 655.742 350.906C649.589 334.664 679.629 336.53 671.268 350.975C670.165 352.88 668.494 354.419 667 356" data-len="86.64"/>
<path d="M887 356C897.84 365.789 884.657 372.429 875.233 366.981C869.987 363.948 875.742 359.634 876.254 356C877.098 350.004 870.238 340.813 881.015 338.478C892.818 335.919 892.034 350.189 887 356" data-len="86.32"/>
<path d="M969 338L977 346" data-len="11.31"/>
<path d="M405 340C427.542 398.12 458.723 454.02 465 517" data-len="187.63"/>
<path d="M188 341C179.991 347.84 172.679 342.621 164 346.367C145.604 354.308 145.84 377.55 155 392C167.579 384.504 185.013 380.454 188.952 364C190.469 357.664 186.809 352.074 188 346" data-len="141.77"/>
<path d="M532 342L526 353" data-len="12.53"/>
<path d="M1218 342C1210.68 348.474 1204.36 357.672 1206.13 367.999C1208.15 379.747 1225.45 395.518 1237.94 390.851C1245.58 387.999 1239.94 377.19 1235.29 374.028C1229.08 369.818 1215.94 372.709 1210 376" data-len="119.87"/>
<path d="M1123 383C1115.08 388.575 1105.91 389.293 1100.36 379.985C1098.37 376.634 1093.95 365.096 1098.6 362.133C1102.04 359.947 1108.23 365.332 1111 367C1111 357.548 1112.11 351.669 1118 344C1133.19 356.596 1117.45 376.487 1128 388" data-len="131.08"/>
<path d="M1224 344C1228.93 346.578 1229.33 351.099 1231 356C1234.77 353.373 1240.73 346.126 1245.85 346.997C1249.55 347.625 1249.38 353.221 1249.25 356C1248.87 364.004 1244.9 369.937 1237 372" data-len="64.46"/>
<path d="M1051 367C1047.62 366.227 1042.58 363.878 1039.32 366.032C1033.52 369.868 1042.13 381.646 1046.46 383.435C1051.7 385.599 1058.81 381.855 1063 379C1057.94 373.055 1051.81 369.376 1051.16 361C1050.82 356.501 1052.38 346.187 1059 350.492C1071.23 358.433 1065.52 367.918 1071.03 377.896C1073.27 381.948 1078.95 384.255 1083 386" data-len="135.90"/>
<path d="M163 377C165.516 366.506 173.267 356.152 182 350" data-len="33.68"/>
<path d="M1174 391C1166.37 385.512 1158.99 377.316 1160.07 367C1160.44 363.541 1163.48 350.909 1168.86 353.176C1174.2 355.428 1175.38 364.486 1178 369" data-len="66.02"/>
<path d="M266 389C266.175 381.18 270.965 378.34 273.548 371.83C275.172 367.736 272.485 363.047 275.579 359.279C279.036 355.066 288.115 355.378 291.003 360.224C293.525 364.456 287.778 368.797 287.183 373.001C286.451 378.168 290.965 390.78 294 395C304.279 384.692 309.31 372.002 293 365" data-len="124.54"/>
<path d="M660 356L667 356" data-len="7.00"/>
<path d="M878 356L887 356" data-len="9.00"/>
<path d="M1232 356L1226 372" data-len="17.09"/>
<path d="M456 357L459 361" data-len="5.00"/>
<path d="M46 396C43.6328 389.483 39.8764 383.037 43.3179 376.001C49.356 363.655 68.2694 358.954 80 359.111C86.5998 359.199 90.2399 356.995 95 363" data-len="79.60"/>
<path d="M209 504L213 507C216.3 500.816 214.802 494.594 220.105 489.043C228.662 480.085 242.678 482.319 242.395 466.004C242.257 458.023 231.758 457.988 227.279 452.895C220.599 445.3 223.623 425.192 228 417C238.21 423.022 249.477 429.665 249.87 443C250.076 449.95 246.024 456.118 248 463C254.697 454.217 261.457 441.996 263.467 431C264.962 422.82 259.536 418.332 266 411C258.172 405.026 247.036 396.639 252.009 385.043C253.319 381.989 256.249 380.957 257.976 378.367C262.117 372.155 258.506 356.838 272 364" data-len="296.76"/>
<path d="M1019 362L1022 367" data-len="5.83"/>
<path d="M1192 362C1192.58 365.474 1193.53 366.424 1197 367" data-len="7.83"/>
<path d="M378 375C373.414 366.131 381.216 359.53 386.91 369.043C390.004 374.214 387.702 380.474 387 386C378.522 384.751 374.488 392.044 379.642 398.956C382.618 402.947 387.253 403.106 390.621 406.314C400.803 416.013 415.864 439.296 419 453C410.428 450.777 404.494 444.342 395 444.043C392.566 443.967 387.429 443.868 386.921 447.189C386.357 450.882 392.424 453.822 395 455.204C403.492 459.765 419.411 456.696 425.485 463.148C434.347 472.561 440.921 485.821 447.281 497C458.465 516.661 470.935 534.476 471 558C462.299 550.984 453.013 537.29 440 540C443.61 547.632 449.068 555.051 456 559.957C461.214 563.647 468.519 565.674 472.297 571.043C481.104 583.557 482.491 609.156 484 624" data-len="450.92"/>
<path d="M1158 384C1150.03 380.8 1146.58 372.264 1149 364L1158 369" data-len="34.43"/>
<path d="M858 377L863 370C867.704 377.127 866.302 387.702 866.08 396C865.636 412.642 866 429.348 866 446L866 598L866 644C866 652.018 867.281 661.283 865 669C834.1 660.296 801.473 656.294 770 650C761.975 648.395 753.987 646.667 746 644.884C743.141 644.246 738.858 644.232 737.028 641.566C733.268 636.092 736 621.519 736 615L736 544C736 504.962 735 466.003 735 427C735 417.667 734.955 408.333 735.001 399C735.019 395.283 734.804 390.087 738.275 387.662C745.436 382.66 743.894 397.051 746.603 398.882C749.705 400.977 756.209 397.576 759 396.11C784.288 382.822 807.381 357.758 839 367.043C846.13 369.137 851.886 372.976 858 377" data-len="834.82"/>
<path d="M376 393C370.571 392.268 365.166 390.877 361.214 386.812C354.769 380.182 357.788 375.448 366 376C365.467 368.928 366.851 364.374 374 370" data-len="50.14"/>
<path d="M657 368L657 598C657 617.554 660.901 639.754 657.852 658.995C656.791 665.688 648.195 667.843 643 665L648 657C633.293 654.643 623.603 667.262 617 678" data-len="358.98"/>
<path d="M670 368C670 411.359 671 454.62 671 498C671 517.137 666.585 542.681 672 561C682.244 553.79 680.952 547.058 686 537" data-len="221.65"/>
<path d="M1112 368L1123 382" data-len="17.80"/>
<path d="M876 369L877 554L877 593L875.972 608.643L867 610" data-len="248.75"/>
<path d="M889 369L890 512L890 551L892 571C899.146 566.718 911.725 572.14 918 577" data-len="230.10"/>
<path d="M1005 395C992.474 400.584 977.612 380.464 980 369C987.585 371.153 994.449 373.506 999.468 380.004C1005.08 387.271 1004.27 399.524 1017 397" data-len="91.82"/>
<path d="M73 374L70 393C77.2898 391.177 82.0103 385.678 72 383" data-len="37.02"/>
<path d="M276 374L286 377" data-len="10.44"/>
<path d="M92 375L91 394C98.8013 393.54 103.144 386.618 106 380" data-len="40.71"/>
<path d="M366 376L370 381" data-len="6.40"/>
<path d="M822 561C822 514.611 821 468.353 821 422L821 389C821 386.106 819.744 379.009 822.603 377.142C833.004 370.351 854.304 385.575 854.956 396C857.313 433.673 855 472.244 855 510C855 527.385 858.922 550.349 854 567C829.527 559.261 801.311 559.403 776 555.308C768.774 554.139 753.206 555.11 747.603 550.062C745.086 547.794 745.473 541.183 745.17 538C744.232 528.148 745 517.895 745 508C745 504.345 743.954 498.678 745.603 495.318C747.594 491.264 754.774 493.826 755.222 487.975C755.733 481.31 746.877 484.876 745.314 479.852C740.73 465.11 744 445.306 744 430C744 425.528 742.258 416.313 745.028 412.564C746.845 410.104 751.3 409.847 754 408.921C760.722 406.616 766.412 402.217 773 400L774 554" data-len="841.06"/>
<path d="M1199 382L1207 376" data-len="10.00"/>
<path d="M801 558C801 515.973 800 474.058 800 432C800 420.677 800.263 409.319 799.985 398C799.877 393.588 797.587 387.428 799.452 383.225C802.246 376.928 815.319 377.004 821 377" data-len="198.42"/>
<path d="M827 378L829 562" data-len="184.01"/>
<path d="M1070 378C1064.98 387.93 1084.1 390.501 1088 398C1079.42 398.662 1077.29 409.707 1079.28 417C1081.55 425.274 1093.06 434.059 1099 440C1100.44 434.766 1099.15 430.328 1096 426L1094 433" data-len="105.88"/>
<path d="M259 379L265 386" data-len="9.22"/>
<path d="M1064 379L1068 380" data-len="4.12"/>
<path d="M78 385L90 380" data-len="13.00"/>
<path d="M1211 380C1208.68 386.8 1207.89 393.726 1201.96 398.606C1198.36 401.564 1191.63 401.621 1188.99 405.314C1186.5 408.791 1186.47 414.908 1185.58 419C1183.26 429.555 1176.43 444.403 1178 455C1182.73 452.763 1190.49 449.114 1192.53 443.96C1193.91 440.484 1192.15 436.575 1192.26 433C1192.54 424.035 1197.04 413.498 1205 409L1208 420L1225 410C1228.85 423.152 1218.7 435.098 1206 437L1208 420" data-len="230.73"/>
<path d="M1175 396C1167.02 397.418 1160.94 401.837 1153 396.995C1148.57 394.29 1138.4 379.36 1150 382" data-len="45.34"/>
<path d="M1203 383L1208 382" data-len="5.10"/>
<path d="M304 383C321.343 391.669 300.138 409.574 292 415L292 416C295.046 417.965 299.362 419.637 301.11 423.025C304.158 428.934 293.985 428.253 291.001 427.106C286.598 425.414 284.26 421.125 281 418L270.708 432.039L249 474C255.943 476.204 258.396 469.173 263.015 465.225C268.478 460.556 275.202 459.552 282 461.24C293.299 464.045 300.768 475.236 303.346 486C303.955 488.544 306.251 493.967 304.788 496.397C303.224 498.993 295.738 498.466 293 499.001C274.121 502.685 266.441 493.833 258 478L247 483C249.551 486.639 253.006 489.728 254.517 494C260.131 509.876 242.917 522.684 232 531L215 507" data-len="389.10"/>
<path d="M773 400L798 383" data-len="30.23"/>
<path d="M942 427C936.807 422.775 933.608 416.799 928.911 412.043C919.388 402.401 911.805 399.413 909 385L910 384C923.961 388.108 921.481 398.25 929.299 406.651C940.678 418.879 954.283 429.302 967 440C970.474 433.077 971.272 424.838 967.005 418.001C965.726 415.951 960.908 409.497 958.029 412.662C954.156 416.918 960.283 429.147 961 434" data-len="194.00"/>
<path d="M1045 384C1035.47 390.784 1044.01 396.679 1053 395.891C1059.59 395.314 1063.89 390.382 1067 385" data-len="40.92"/>
<path d="M387 386L394.688 402L414 430L416 408C423.692 414.181 426.688 423.315 425.907 433C425.552 437.39 422.969 441.605 424.457 446C427.674 455.506 435.902 464.602 441.308 473C447.803 483.089 452.742 494.481 460 504" data-len="183.31"/>
<path d="M445 413L453 386C458.35 394.004 459.99 406.773 456.895 416C455.446 420.319 451.287 424.472 450.889 429C450.546 432.896 453.278 437.382 454.485 441C457.454 449.905 459.29 459.379 463 468L468 463C471.646 472.735 467.236 480.307 467.457 490C467.72 501.509 471.078 513.677 473.084 525C481.715 573.721 497.975 623.341 499 673" data-len="335.08"/>
<path d="M791 387C797.648 399.456 793 423.929 793 438C793 477.646 794 517.296 794 557" data-len="170.56"/>
<path d="M488 389L488 398" data-len="9.00"/>
<path d="M1043 449L1046 451C1036.91 446.934 1039.78 441.886 1037.42 434C1034.88 425.553 1029.67 415.593 1023.67 409.108C1020.61 405.802 1012.71 401.383 1008 401.978C999.77 403.017 995.122 410.429 986 404.991C978.138 400.304 970.185 389.049 984 389" data-len="118.79"/>
<path d="M69 392L61 396" data-len="8.94"/>
<path d="M80 392L90 395" data-len="10.44"/>
<path d="M554 392L554 396" data-len="4.00"/>
<path d="M933 408L936 392C945.129 398.385 946.496 407.515 944 418" data-len="45.47"/>
<path d="M114 393C113.382 407.179 106.389 408.581 97.6034 416.923C94.8682 419.52 95.9996 425.532 95.1528 429C92.9712 437.933 85.1097 444.677 76 445.815C68.0283 446.81 56.6178 447.626 51.7423 439.985C49.7883 436.922 51.2106 431.257 48.3966 429.028C46.0834 427.196 41.7668 428.074 39 427.482C29.5171 425.455 19.544 417.489 25.135 407.005C26.3695 404.69 28.2182 402.885 30 401" data-len="154.46"/>
<path d="M545 393L544 401" data-len="8.06"/>
<path d="M867 393L875 394" data-len="8.06"/>
<path d="M291 394C290.197 402.433 285.807 408.173 280 414L292 415" data-len="35.38"/>
<path d="M1178 394L1180 397" data-len="3.61"/>
<path d="M90 396C79.9795 405.016 70.1321 409.923 59 400" data-len="35.22"/>
<path d="M519 680C527.888 645.648 530.249 609.584 538.895 575C549.092 534.212 565.589 496.61 583.742 459C594.242 437.244 594.352 412.253 614 396C618.103 409.913 606.88 420.413 604 433L629 419C627.162 429.302 612.074 445.39 601 437L602 436L603 435L603 434" data-len="412.59"/>
<path d="M1089 399L1096 426" data-len="27.89"/>
<path d="M1180 401L1173.25 430L1170 452" data-len="52.01"/>
<path d="M40 405C46.3201 418.171 55.415 413.353 67 414.09C76.686 414.707 86.2776 416.799 96 417" data-len="60.16"/>
<path d="M211 405L211 409" data-len="4.00"/>
<path d="M767 405L767 553" data-len="148.00"/>
<path d="M1170 451C1163.12 441.645 1154.28 430.324 1156.71 418C1157.33 414.842 1159.11 404.945 1164.08 406.346C1171.44 408.421 1171.11 419.614 1174 425" data-len="73.94"/>
<path d="M261 416C257.004 416.505 252.901 417.592 249.005 415.991C237.788 411.38 248.512 406.297 255 406" data-len="32.07"/>
<path d="M1045 429C1047.84 423.213 1044 412.377 1049.73 407.712C1054.38 403.921 1058.5 413.916 1059.18 417C1061.11 425.783 1057.21 434.164 1052 441" data-len="63.74"/>
<path d="M1249 440L1237 452C1232.52 436.859 1239.85 418.291 1253 410C1256.21 420.874 1249.92 429.567 1249 440L1263 428" data-len="114.02"/>
<path d="M266 411L279 413" data-len="13.15"/>
<path d="M1025 412C1014 421.605 1020.61 431.366 1029 440" data-len="32.91"/>
<path d="M128 467C130.607 462.806 134.533 456.041 134.577 451C134.637 444.102 130.485 438.306 132.499 431C138.181 410.393 164.347 415.223 180 414" data-len="92.48"/>
<path d="M1096 437C1084.01 443.913 1061.97 431.425 1069.6 416.333C1071.29 413.007 1074.98 415.684 1077 417" data-len="51.81"/>
<path d="M179 415C177.118 428.975 174.815 444.355 161 451.598C155.26 454.607 144.098 453.562 139.966 458.318C127.941 472.158 138.367 489.923 146 503C152.227 494.177 149.367 485.727 153.09 477C162.476 455.004 180.712 462.491 198 464" data-len="192.55"/>
<path d="M867 415L876 416" data-len="9.06"/>
<path d="M1162 443L1162 449C1149.03 448.963 1144.02 440.161 1144 428C1144 425.143 1142.9 418.791 1145.6 416.832C1148.66 414.613 1152.35 420.159 1154 422" data-len="60.00"/>
<path d="M90 417C82.2804 433.406 64.22 422.124 51 428" data-len="43.04"/>
<path d="M1024 437C1014.89 442.174 996.307 433.438 999.068 421.152C1000.65 414.094 1013.3 421.792 1016 424" data-len="55.24"/>
<path d="M1007 488C985.991 472.538 971.321 447.879 949 433.462C944.441 430.517 939.904 433.858 935 433.944C926.784 434.089 921.59 427.062 919 420L936 424" data-len="134.38"/>
<path d="M162 424C154.355 430.162 146.475 436.016 142 445" data-len="29.25"/>
<path d="M333 438C333.276 425.978 357.701 419.308 355 434L356 435C369.526 432.21 378.626 435.236 364 446C367.765 447.62 383.167 451.787 375.677 458.4C373.484 460.337 369.63 460.725 367 462C377.587 474.52 362.548 472.093 355 474L368 515L376 509L376 508C363.964 499.123 367.972 492.229 382 494C381.519 490.729 380.086 487.329 380.282 484.005C380.626 478.196 385.656 477.271 389.776 480.653C393.996 484.116 394.763 490.036 396 495" data-len="241.56"/>
<path d="M14 429C23.7715 441.253 5.14687 441.319 14 429" data-len="22.78"/>
<path d="M546 429L543 434" data-len="5.83"/>
<path d="M416 431C417.132 435.766 418.585 440.494 423 443" data-len="14.33"/>
<path d="M95 433C100.914 436.168 105.17 434.447 111 432" data-len="16.75"/>
<path d="M991 462L981 453L984 432C997.728 441.758 988.977 450.866 993.468 463C996.341 470.76 1010.78 484.146 1018 488L1015 485" data-len="108.45"/>
<path d="M1108 433C1108.32 448.201 1114.99 465.189 1118.63 480C1123.55 500.033 1126.22 520.693 1129.75 541C1134.08 565.924 1133.26 591.005 1136.29 616C1139.92 645.984 1147.83 675.984 1156 705" data-len="276.90"/>
<path d="M1220 434C1231.01 432.951 1225.94 442.829 1220.81 447.787C1213.46 454.908 1203.72 455.226 1196 449C1190.14 454.352 1180.15 457.833 1175.59 464.105C1169.23 472.846 1170.39 490.569 1168 501" data-len="111.47"/>
<path d="M237 434L243 456" data-len="22.80"/>
<path d="M355 434L351 438" data-len="5.66"/>
<path d="M328 446C324.242 445.239 316.374 440.091 322.319 436.183C325.064 434.378 329.007 435.624 332 436" data-len="24.78"/>
<path d="M104 436L113 457L101 460L118.985 471.39L131 490" data-len="78.66"/>
<path d="M1093 436C1094.32 444.581 1102.97 450.443 1105.62 459C1113.8 485.403 1118.05 514.569 1120.65 542C1121.49 550.976 1127.47 561.288 1123 570L1111 548L1107 557" data-len="174.54"/>
<path d="M1206 437L1196 449" data-len="15.62"/>
<path d="M1263 437C1257.84 442.164 1243.11 453.39 1246 461L1262 453" data-len="48.57"/>
<path d="M1040 438L1045 448" data-len="11.18"/>
<path d="M1166 444L1171 438" data-len="7.81"/>
<path d="M601 439C596.258 445.937 585.46 462.834 589 471C594.932 463.716 600.737 458.138 610 455.64C611.979 455.107 618.449 452.752 618.967 456.322C619.454 459.679 614.943 463.827 612.91 465.996C607.932 471.304 601.804 475.851 595 478.535C589.368 480.758 582.747 480.685 578.966 486.055C561.372 511.043 555.229 545.252 547.657 574C544.506 585.966 536.267 601.348 539 614C545.816 608.613 547.737 597.721 551.309 590C559.707 571.848 575.94 553.202 568 532C555.246 539.001 559.763 557.507 560 569" data-len="388.79"/>
<path d="M1149 651C1145 635.553 1148.62 620.387 1146.87 605C1145.16 589.988 1139.64 575.308 1138.17 560C1135.81 535.389 1136.11 510.593 1133.94 486.004C1133.43 480.208 1127.64 476.756 1124.76 472C1119.23 462.878 1116.96 449.297 1120 439L1130 452" data-len="233.79"/>
<path d="M967 440L981 453" data-len="19.10"/>
<path d="M1018 440C1012.22 446.259 1013.74 454.991 1024 454.486C1028.96 454.242 1033.04 450.581 1037 448" data-len="36.42"/>
<path d="M1101 441L1098 444" data-len="4.24"/>
<path d="M1100 442L1100 447" data-len="5.00"/>
<path d="M14 491L12 494L4 481L14 491C16.2005 483.556 20.0366 463.32 15.5664 456.399C12.6086 451.82 3.2963 456.286 3.2963 448.044C3.2963 441.002 10.0721 446.631 12 449" data-len="97.33"/>
<path d="M321 443C317.915 444.712 313.046 445.115 310.604 447.703C301.917 456.911 321.354 456.316 325 456" data-len="34.61"/>
<path d="M1194 443L1197 446" data-len="4.24"/>
<path d="M340.001 444.863C349.845 443.372 349.923 456.785 340.999 457.968C332.139 459.141 331.203 446.195 340.001 444.863" data-len="42.74"/>
<path d="M16 452C19.3335 440.265 29.4073 450.593 21.9452 453.321C20.1801 453.966 17.854 453.774 16 454" data-len="24.07"/>
<path d="M356 447L364 446" data-len="8.06"/>
<path d="M1037 448L1055 472C1057.26 465.371 1050.16 457.704 1047 452" data-len="52.23"/>
<path d="M568 489C561.167 476.862 563.567 461.273 569 449C577.084 453.348 573.817 463.615 576 471" data-len="65.60"/>
<path d="M965 460C953.208 470.479 942.555 461.786 934 452C949.637 443.332 957.841 459.243 972 458" data-len="76.80"/>
<path d="M1162 449C1170.21 460.527 1166.56 485.731 1160 498L1152 474L1143 519" data-len="122.08"/>
<path d="M1237 452L1218.88 484.285L1210 503C1203.28 489.614 1208.23 475.298 1218 465L1218 482" data-len="116.23"/>
<path d="M14 455L15 459" data-len="4.12"/>
<path d="M114 458L117 462" data-len="5.00"/>
<path d="M317 458C306.855 469.311 314.939 472.355 326 468C325.613 479.166 330.162 485.724 339 475C348.984 490.434 354.994 475.908 350 464" data-len="81.04"/>
<path d="M357 458L366 461" data-len="9.49"/>
<path d="M1099 459C1099.57 472.296 1102.2 483.83 1111 494" data-len="37.77"/>
<path d="M1244 459L1242 462L1245 462" data-len="6.61"/>
<path d="M14 460L15 473" data-len="13.04"/>
<path d="M27.0586 462.029C35.2373 457.607 36.5164 466.72 28.7191 470.25C22.4471 473.089 22.4943 464.496 27.0586 462.029" data-len="31.39"/>
<path d="M87 485C74.6312 494.809 62.4415 499.922 47 494.189C43.999 493.075 37.9441 492.084 36.6474 488.722C35.0779 484.654 39.621 479.108 41.7461 476.001C49.272 464.998 62.675 458.987 76 461.329C88.8437 463.586 87.6877 475.095 96.1335 481.157C105.644 487.984 117.082 486.883 128 489" data-len="171.31"/>
<path d="M646 462C641.843 472.392 637.013 479.964 629 488C635.088 491.772 645.172 487.308 652 486" data-len="54.96"/>
<path d="M1242 462L1233 475C1243.9 474.91 1253.42 470.546 1262 464" data-len="47.39"/>
<path d="M15 476C12.098 474.425 7.95263 474.029 5.65355 471.566C-2.31445 463.031 9.95103 465.977 14 468" data-len="27.61"/>
<path d="M330 463L327 467" data-len="5.00"/>
<path d="M1017 484C1016.09 480.85 1007.59 466.469 1011.64 464.256C1018.82 460.339 1027.47 480.259 1028.38 485C1029.35 490.011 1028.23 496.346 1029.9 501C1034.99 515.229 1052.28 528.808 1061.27 541C1070.24 553.182 1078.12 568.536 1089 579C1092.11 568.457 1084.75 560.28 1077.98 553C1069 543.357 1051.93 523.376 1055 509C1082.61 526.548 1093.98 557.858 1098 589C1093.32 587.881 1091.41 584.416 1090 580" data-len="352.28"/>
<path d="M591 526C598.809 511.109 609.714 498.081 620.2 485C626.613 477 634.188 467.774 644 464" data-len="82.54"/>
<path d="M1173 487C1177.43 480.914 1184.67 466.34 1192.85 465.06C1199.43 464.031 1190.6 483.667 1189.25 486C1183.79 495.481 1173.67 500.332 1167.86 509.17C1162.62 517.125 1160.01 542.813 1162 552L1178 532C1181.63 544.282 1175.28 560.056 1168.07 570C1164.99 574.25 1159.69 578.19 1157.74 583.089C1155.1 589.713 1158.75 596.866 1157 603L1156 599" data-len="236.44"/>
<path d="M339 466L339 475" data-len="9.00"/>
<path d="M1152 466L1152 474" data-len="8.00"/>
<path d="M207 468L214 472L196.6 492.224L194 522" data-len="64.63"/>
<path d="M463 468L463 472" data-len="4.00"/>
<path d="M586 470L588 473L585 472" data-len="6.77"/>
<path d="M24 471C21.1379 473.577 19.7612 474.972 16 474" data-len="9.08"/>
<path d="M29 471C35.6108 480.591 23.3379 476.451 19.6034 481.188C17.1706 484.273 18 489.328 18 493" data-len="30.43"/>
<path d="M498 471L509 489" data-len="21.10"/>
<path d="M1070 471C1069.32 477.912 1073.19 486.307 1077 492" data-len="22.53"/>
<path d="M161 484L191 472" data-len="32.31"/>
<path d="M1058 472L1058 476L1054 473" data-len="9.00"/>
<path d="M1066 472L1069 475" data-len="4.24"/>
<path d="M1075 511L1075 509C1062.6 503.504 1051.28 500.376 1042.53 489C1040.38 486.203 1036.11 480.178 1037.7 476.362C1039.12 472.956 1044.21 476.724 1046 477.812C1053.44 482.318 1059.86 487.878 1066 494C1067.18 487.668 1061.57 481.002 1058 476" data-len="110.33"/>
<path d="M249 475L245 482L238 480" data-len="15.34"/>
<path d="M260 475C273.01 475 283.496 477.991 294 486" data-len="36.45"/>
<path d="M509 475L508 481" data-len="6.08"/>
<path d="M584 475L582 478" data-len="3.61"/>
<path d="M492 476C492.333 483.297 495.132 488.65 500 494" data-len="20.15"/>
<path d="M1232 476L1220 503C1227.65 499.403 1232.47 491.162 1240 486.88C1242.02 485.735 1246.93 482.881 1248.3 486.333C1250.18 491.058 1244.03 497.816 1244 503L1244 501" data-len="84.36"/>
<path d="M394 487C395.397 484.498 396.141 480.592 398.433 478.758C406.61 472.214 407.997 487.657 408 492" data-len="30.66"/>
<path d="M1078 598L1069 575L1076 575C1065.23 554.704 1049.04 536.345 1034.13 519C1027.72 511.545 1021.16 501.213 1012.91 495.742C1003.85 489.729 990.099 494.732 980 487.779C977.607 486.132 972.365 482.83 972.921 479.317C974.035 472.287 993.745 480.908 997 482" data-len="205.43"/>
<path d="M54 482L76 478.039L93 479" data-len="39.38"/>
<path d="M534 480L527 484" data-len="8.06"/>
<path d="M414 484C429.138 476.402 424.148 492.739 416 499" data-len="28.27"/>
<path d="M969 514C962.938 506.209 956.142 499.982 951.493 491C950.411 488.91 947.237 481.732 952.149 481.956C970.065 482.774 966.809 505.599 973.603 514.79C978.899 521.953 990.247 525.158 997 531" data-len="110.97"/>
<path d="M1261 482L1262 488" data-len="6.08"/>
<path d="M351 484C351.865 494.586 354.778 509.319 361 518" data-len="35.81"/>
<path d="M1031 568L998 539.973L944 504.468L921.044 492.816L917.712 485.068L929 487.759L958 505" data-len="187.44"/>
<path d="M496 503C490.742 502.317 485.051 501.045 481.434 496.79C473.015 486.885 486.495 485.938 493 488" data-len="38.75"/>
<path d="M650 487L643 500" data-len="14.76"/>
<path d="M0 488L9 491" data-len="9.49"/>
<path d="M194 531L189 564L157 546C148.037 561.339 139.095 564 122 564C118.674 564 110.3 565.495 108.067 562.397C106.086 559.647 108.519 553.094 108.971 550C112.106 528.504 129.787 523.916 148 527C145.609 518.259 139.755 501.988 131.907 496.857C127.313 493.854 120.268 493.366 115 492C113.664 498.416 117.808 504.304 116.532 511C113.216 528.391 94.302 532.916 81 540C71.7181 522.963 70.0188 483.686 100 489" data-len="379.00"/>
<path d="M1018 488L1024 495" data-len="9.22"/>
<path d="M202 489C211.418 502.093 198.73 522.417 203 537L218 516" data-len="74.86"/>
<path d="M241 489L234 512" data-len="24.04"/>
<path d="M629 489L617 502L641 497" data-len="42.21"/>
<path d="M189 558C183.056 552.807 178.129 546.248 171.996 541.39C168.909 538.945 164.308 537.941 161.923 534.725C158.472 530.072 156.3 523.245 153.757 518C151.016 512.347 151.454 497.603 158.394 494.212C162.387 492.261 170.53 496.694 175 496.896C182.658 497.242 188.93 493.036 196 491" data-len="119.64"/>
<path d="M571 554C575.895 548.087 582.735 539.566 584.582 532C588.078 517.682 581.695 500.138 599 492L599 511" data-len="90.17"/>
<path d="M693 510L694 512C691.562 511.385 680.31 508.917 687.167 505.062C689.185 503.928 692.362 505.153 693.948 503.307C696.722 500.081 695.293 495.401 699 492" data-len="35.91"/>
<path d="M1262 501C1258.04 497.421 1257.53 494.014 1263 492" data-len="12.07"/>
<path d="M6 494L7 514" data-len="20.02"/>
<path d="M13 494L23 514L28 496L32 500L37 496C42.6107 505.157 38.2122 502.32 35.8927 510.274C34.7512 514.188 36.8544 522.133 38 526C42.9328 519.943 46.5057 516.948 54 515L53 504L58 508C62.5081 503.166 65.1596 506.381 64 512" data-len="134.53"/>
<path d="M382 494L387 498" data-len="6.40"/>
<path d="M1067 494L1072 499" data-len="7.07"/>
<path d="M1197 494C1202.22 509.421 1198.49 537.199 1190 551C1183.22 533.301 1181.45 507.938 1197 494" data-len="119.66"/>
<path d="M104 495C96.0455 503.715 92.1422 513.197 88 524" data-len="33.34"/>
<path d="M687 501C685.721 494.889 690.503 496.318 694 499" data-len="11.24"/>
<path d="M703 495L697 504" data-len="10.82"/>
<path d="M510.001 497.016C520.019 495.884 522.237 511.849 511.999 512.808C501.214 513.818 499.111 498.247 510.001 497.016" data-len="50.31"/>
<path d="M535 497C539.122 499.234 545.313 499.241 548.238 503.34C553.477 510.68 540.485 512.711 536 512L535 513C538.244 522.866 542.926 533.968 527 529C524.046 538.72 519.488 555.058 522 565L538 550C541.824 565.14 527.101 575.498 519.56 586.089C515.263 592.125 513.967 608.056 516 615L525 606C529.813 622.283 514.494 635.75 523 651" data-len="252.56"/>
<path d="M420 498C424.912 498.003 445.758 501.375 433.941 509.142C431.062 511.034 427.222 511.021 424 512C430.32 522.286 431.419 529.821 417 528L444 608" data-len="146.92"/>
<path d="M1123 498L1133 506" data-len="12.81"/>
<path d="M1160 498C1159.32 513.87 1155.85 525.18 1145 537L1143 525" data-len="54.98"/>
<path d="M38 499L35 504" data-len="5.83"/>
<path d="M905 503L907 499" data-len="4.47"/>
<path d="M909 500L924 534C924.733 531.834 926.292 519.409 922 525L921 526" data-len="51.88"/>
<path d="M400 501.667C411.037 499.456 410.691 515.264 401 517.548C389.216 520.325 389.407 503.788 400 501.667" data-len="51.52"/>
<path d="M487 502C473.162 513.528 481.654 517.441 496 516" data-len="30.33"/>
<path d="M617 502L605 516L608 519C616.09 513.29 626.681 511.067 636 515C625.828 529.101 610.682 522.382 598.09 529.179C589.15 534.005 583.463 549.744 578 558L589 564C591.446 558.317 593.915 543.143 602 552L606 534L611 547L622 538L625 550C630.05 543.642 640.822 532.947 641 548L647 545C649.608 549.207 650.47 553.179 656 553" data-len="269.11"/>
<path d="M990 524L982 503L983 502C998.729 507.348 997.44 523.242 1004.01 534.911C1010.82 546.996 1029.69 556.844 1040 566.17C1044.28 570.045 1048.14 576 1054 577L1051 576" data-len="133.68"/>
<path d="M650 503L647 506" data-len="4.24"/>
<path d="M1210 503L1199 530" data-len="29.15"/>
<path d="M1232 525C1227.69 527.25 1225.12 526.747 1222 523L1230 519L1227 513L1242 503" data-len="45.08"/>
<path d="M701 507L706 504" data-len="5.83"/>
<path d="M1219 504L1217 509" data-len="5.39"/>
<path d="M708 505C709.828 513.272 702.423 513.291 697 510" data-len="16.91"/>
<path d="M1245 505L1247 511L1251 509L1248 527L1263 514" data-len="48.89"/>
<path d="M1255 505L1262 505" data-len="7.00"/>
<path d="M904 506C905.075 508.583 904.924 512.323 906.756 514.487C911.935 520.604 919.15 522.675 917 533C914.292 530.943 901.916 526.916 908.337 533.586C913.307 538.748 919.938 539.928 925 546L924 534" data-len="79.44"/>
<path d="M30 507L35 510" data-len="5.83"/>
<path d="M0 508L6 512" data-len="7.21"/>
<path d="M67 508C72.178 512.923 69.0299 519.148 62 518L57 525L53 516" data-len="34.69"/>
<path d="M346 549C354.455 539.437 360.128 545.287 364 555L374 554C372.831 546.198 368.384 539.247 365.453 532C364.33 529.223 363.741 524.998 360.722 523.603C352.753 519.921 342.127 524.325 335.662 515.487C332.999 511.846 338.187 509.65 341.001 508.943C346.515 507.557 351.368 510.307 356 513" data-len="122.29"/>
<path d="M376 509L385 509" data-len="9.00"/>
<path d="M416 510L424 512" data-len="8.25"/>
<path d="M962 517C956.948 525.287 942.664 523.404 935 520.477C932.24 519.423 924.095 515.706 927.662 511.603C933.122 505.322 947.362 513.566 954 511" data-len="69.97"/>
<path d="M528 511L535 513" data-len="7.28"/>
<path d="M1076 511L1077 514L1074 513" data-len="6.32"/>
<path d="M1242 515C1237.18 519.523 1233 516.755 1237 511C1240.74 513.888 1242.26 513.888 1246 511" data-len="23.17"/>
<path d="M692 512L693 515L694 512" data-len="6.32"/>
<path d="M1129 512L1131 516" data-len="4.47"/>
<path d="M189 528L171 515C178.84 512.064 185.098 513.505 192 518" data-len="44.36"/>
<path d="M644 513L651 530L655 522" data-len="27.33"/>
<path d="M1221 549L1217 549C1221.65 550.353 1225.4 544.548 1228 541C1223.14 538.575 1224.3 534.001 1221.31 532.176C1217.4 529.8 1208.43 541.57 1206 544C1199.31 530.283 1216.4 517.111 1227 513" data-len="91.74"/>
<path d="M1078 515C1101.49 559.645 1118.81 608.424 1135 656" data-len="152.25"/>
<path d="M223 521C216.468 530.174 200.659 550.573 202 562C210.529 557.757 211.508 550.628 218.059 545.652C228.876 537.437 242.097 542.402 248 553C260.833 546.873 250.995 536.925 257.483 527.004C272.727 503.693 299.842 521.428 313 536" data-len="200.62"/>
<path d="M367 516C370.399 525.086 379.05 524.831 387 521" data-len="23.78"/>
<path d="M680 530C676.795 525.292 675.243 521.249 678 516L685 528L687 524" data-len="33.40"/>
<path d="M1042 563L1012 517C1030.51 512.377 1036.79 535.387 1044.6 545.791C1047.42 549.555 1052.36 551.566 1055.56 555.09C1061.06 561.132 1064.32 568.432 1069 575" data-len="140.59"/>
<path d="M495 517C492.548 523.906 492.326 539.313 503.556 529.501C506.772 526.691 508.109 522.682 510 519" data-len="37.07"/>
<path d="M1090 517L1095 531" data-len="14.87"/>
<path d="M606 519C604.204 520.531 603.469 519.796 605 518" data-len="4.02"/>
<path d="M1109 519L1117 539L1120 536" data-len="25.78"/>
<path d="M1239 520L1232.19 535L1231.26 547L1200.71 593L1181.8 633L1168 664L1167 658L1171 660" data-len="172.46"/>
<path d="M935 521L937 536" data-len="15.13"/>
<path d="M61 522L64 536L76 534" data-len="26.48"/>
<path d="M411 522L417 528" data-len="8.49"/>
<path d="M522 522L516.63 542L512 585" data-len="63.96"/>
<path d="M633 526C635.196 524.286 640.485 522.41 641 526" data-len="9.54"/>
<path d="M690 530L698 523" data-len="10.63"/>
<path d="M940 523L942 534L946 529L946 542" data-len="30.58"/>
<path d="M1263 523C1259.83 526.385 1258.53 528.341 1259 533C1255.24 532.877 1253.73 533.647 1252 537L1263 538" data-len="31.02"/>
<path d="M371 524C376.372 542.649 394.101 542.986 400 524" data-len="43.37"/>
<path d="M385 524L377 537" data-len="15.26"/>
<path d="M946 524L946 529" data-len="5.00"/>
<path d="M325 525L335 540C340.975 530.015 346.782 534.816 347 545" data-len="39.81"/>
<path d="M524 525L526 528" data-len="3.61"/>
<path d="M703 525C699.607 531.521 695.197 533.935 688 534" data-len="18.61"/>
<path d="M55 526L53 530" data-len="4.47"/>
<path d="M322 526L322 541" data-len="15.00"/>
<path d="M412 526C413.039 530.415 411.577 534.736 412.538 539C414.928 549.605 420.471 560.683 424.136 571C429.917 587.274 434.494 603.892 440.797 620C444.443 629.318 453.53 650.756 449 660L435.218 633L426.047 617L423 602" data-len="204.61"/>
<path d="M688 526L687 531" data-len="5.10"/>
<path d="M958 526C957.234 529.384 955.108 534.296 957.112 537.582C962.988 547.216 989.891 544.328 998 540" data-len="55.19"/>
<path d="M1156 526L1149.73 568L1147 601" data-len="75.58"/>
<path d="M148 527C151.604 531.122 154.334 535.125 160 536" data-len="15.39"/>
<path d="M262 540L290 527" data-len="30.87"/>
<path d="M508 527C509.66 545.912 506.968 563.884 506.039 583C505.59 592.235 506.364 605.823 502 614C498.588 607.607 500 599.102 500 592C500 573.077 499.617 550.411 504 532" data-len="170.23"/>
<path d="M1248 527L1239 539" data-len="15.00"/>
<path d="M16 529L20 535" data-len="7.21"/>
<path d="M640 529L649 531" data-len="9.22"/>
<path d="M398 530C402.108 535.53 403.578 545.289 412 540" data-len="20.33"/>
<path d="M958 535C967.547 531.423 976.376 532.454 986 535" data-len="28.50"/>
<path d="M11 533L14 538" data-len="5.83"/>
<path d="M643 535C648.25 533.175 650.219 535.688 653 540" data-len="12.50"/>
<path d="M707 533L712 539" data-len="7.81"/>
<path d="M477 534L490 547" data-len="18.38"/>
<path d="M683 534L679 550" data-len="16.49"/>
<path d="M942 534L942 539" data-len="5.00"/>
<path d="M63 535L60 539" data-len="5.00"/>
<path d="M121 550L148 535" data-len="30.89"/>
<path d="M311 535L266 556L284 562.464L308 579" data-len="97.93"/>
<path d="M156 536L157 546" data-len="10.05"/>
<path d="M704 536L700 546L702 546" data-len="12.77"/>
<path d="M203 537L201 545" data-len="8.25"/>
<path d="M495 537L492.039 579L491 605" data-len="68.13"/>
<path d="M511 537L517 538" data-len="6.08"/>
<path d="M715 537C718.536 538.073 719.54 539.325 719 543" data-len="8.24"/>
<path d="M1145 537C1145.01 545.822 1144.8 558.145 1149 566" data-len="29.55"/>
<path d="M1263 546C1250.77 547.648 1243.53 554.755 1233 560C1234.7 551.53 1243.7 542.254 1251 538" data-len="62.47"/>
<path d="M379 539C380.289 553.332 392.885 569.764 400 582" data-len="48.25"/>
<path d="M926 544L929 545C931.257 530.86 945.165 550.619 946 557" data-len="32.41"/>
<path d="M335 540L335 544" data-len="4.00"/>
<path d="M1221 540L1219 547" data-len="7.28"/>
<path d="M80 541L77 548C83.8397 545.214 91.2596 543.214 92 553L108 553" data-len="43.51"/>
<path d="M1204 542L1191 572C1202.08 573.131 1211.38 557.724 1217 550" data-len="68.24"/>
<path d="M46 543L48 549L44 545" data-len="11.98"/>
<path d="M920 564L905 546L925 549L925 548L925 547L925 546" data-len="46.65"/>
<path d="M945 552C951.19 543.787 955.783 546.138 960 555" data-len="20.85"/>
<path d="M261 546L273 549" data-len="12.37"/>
<path d="M695 560L708 546C707.992 551.241 704.517 554.398 701 558" data-len="33.42"/>
<path d="M719 546L720 550" data-len="4.12"/>
<path d="M930 547L931 555L925 552" data-len="14.77"/>
<path d="M287 548C314.344 550.233 315.982 572.672 320 594C308.651 594.108 288.429 594.08 279 587.362C268.389 579.801 264.265 552.05 247 560C250.595 563.141 254.43 566.053 257.2 570.001C270.87 589.481 250.272 605.574 240 620C232.719 607.713 219.778 598.786 217.479 584C214.92 567.537 232.442 553.273 247 560" data-len="311.94"/>
<path d="M611 548L604 562L602 552" data-len="25.85"/>
<path d="M712 548L717 552L718 552" data-len="7.40"/>
<path d="M962 548L977 556" data-len="17.00"/>
<path d="M1044 548L1053 574" data-len="27.51"/>
<path d="M640 549L637 556" data-len="7.62"/>
<path d="M19 550L26 558" data-len="10.63"/>
<path d="M162 550L178.656 592L181.882 607.589L171 609C179.187 619.155 183.282 630 197 630L209 609L209 612" data-len="134.30"/>
<path d="M394 567C394.053 560.588 395.053 555.174 399 550C405.172 556.876 409.229 566.71 409.91 576C410.562 584.905 406.905 591.122 412.425 599C415.829 603.859 420.282 613.995 427 613" data-len="91.72"/>
<path d="M625 550L623 557" data-len="7.28"/>
<path d="M684 552C695.824 546.43 689.296 560.296 690 566C692.909 564.88 702.558 560.286 704.744 564.603C707.218 569.491 696.218 576.949 693 579" data-len="57.26"/>
<path d="M982 553C992.411 546.128 991.951 554.863 999.313 558.397C1004.39 560.831 1015.18 561.143 1021 562" data-len="42.86"/>
<path d="M1190 552C1178.79 580.316 1163.82 610.258 1157.3 640C1155.53 648.098 1157.01 659.55 1157 668" data-len="122.07"/>
<path d="M171 553C172.663 564.263 178.787 579.221 186 588C189.342 581.971 191.209 571.254 188 565" data-len="62.30"/>
<path d="M215 553L221 556C214.468 560.468 206.596 563.27 201.879 570.089C193.986 581.499 195.698 602.708 195 616" data-len="77.67"/>
<path d="M1161 553L1158 579" data-len="26.17"/>
<path d="M38 554L39 558" data-len="4.12"/>
<path d="M330 554L332 559" data-len="5.39"/>
<path d="M374 554C380.159 561.49 385.656 570.295 386 580L388 578" data-len="31.98"/>
<path d="M1263 554C1255 561.298 1235.31 573.803 1224 571C1220.33 576.91 1213.16 583.726 1214 591C1217.07 588.668 1232.2 573.799 1236.12 579.503C1238.42 582.849 1231.4 590.439 1229.57 593C1221.29 604.594 1211.15 617.49 1197 622C1200.12 611.077 1206.35 599.381 1214 591" data-len="188.99"/>
<path d="M255 555L259 556L256 559" data-len="8.37"/>
<path d="M931 555L934 559" data-len="5.00"/>
<path d="M221 556L232 558" data-len="11.18"/>
<path d="M259 556L265 556" data-len="6.00"/>
<path d="M325 557L328 561" data-len="5.00"/>
<path d="M1051 592C1058.84 595.064 1064.99 602.419 1070 609C1057.07 613.223 1031.72 599.088 1027 587L1053 589C1048.18 584.224 1041.71 576.269 1035 574.434C1021.1 570.633 999.386 577.413 991 561L996 559" data-len="180.24"/>
<path d="M1233 560L1224 570" data-len="13.45"/>
<path d="M241 561L240 600" data-len="39.01"/>
<path d="M577 561C571.023 568.839 557.361 586.857 560 597C574.655 587.306 590.31 571.182 610 577C600.73 590.049 583.505 593.456 570 600.374C563.403 603.754 558.453 609.462 553.594 614.911C548.425 620.708 539.77 632.737 546 640C539.772 645.35 531.6 659.481 538 667L547 659L548 670L564 652L562 681L583 659" data-len="331.44"/>
<path d="M673 561C668.666 569.121 671 581.933 671 591C671 614.617 672 638.313 672 662L678 661L679 662L676 671L697 666L693 674L713 673" data-len="168.95"/>
<path d="M767 636C762.099 635.61 749.954 635.14 747.028 630.686C744.561 626.931 746 619.314 746 615C746 602.41 743.977 589.536 745.17 577C745.478 573.756 744.754 564.063 747.603 562.117C752.303 558.908 768.656 564.263 774 565.417C790.308 568.937 807.454 570.544 824 572.87C831.943 573.986 841.528 573.785 848.995 576.879C855.672 579.645 855 585.905 855 592L855 634C855 638.221 857.854 649.389 853.682 651.933C848.997 654.789 837.096 649.95 832 648.965C811.1 644.927 786.74 644.14 767 636L768 612L768 565" data-len="431.57"/>
<path d="M914 573C912.386 568.554 908.164 563.152 915 562" data-len="13.77"/>
<path d="M434 659L437 663L433 660C437.974 651.936 426.679 637.219 422.397 630C420.702 627.143 419.004 623.029 415.79 621.6C407.643 617.977 397.493 619.832 389 616.124C386.24 614.919 368.752 605.97 376.167 602.603C385.722 598.264 395.87 607.246 405 605C402.831 599.278 397.276 589.135 391.816 586.028C387.475 583.558 380.837 585.363 376 584.331C364.382 581.853 353.804 574.658 347 565C363.105 560.24 371.696 572.855 385 578" data-len="249.74"/>
<path d="M689 565L683 571" data-len="8.49"/>
<path d="M76 578C86.6626 585.194 98.6821 593.839 102 607C83.7291 608.051 67.2831 601.513 61.3441 583C60.2003 579.434 56.4636 571.03 59.0424 567.603C61.6258 564.171 72.1626 565.994 76 566C91.8125 566.025 108.317 575.609 108.956 593C109.271 601.584 104.56 611.492 109.078 619.816C111.504 624.285 123.564 632.893 128.91 631.988C132.031 631.459 134.244 627.981 137.015 626.558C151.713 619.006 162.359 610.707 158.332 592C157.52 588.228 155.758 577.825 151.606 576.33C148.38 575.169 141.075 580.391 138 581.719C124.087 587.728 114.754 599.097 119.301 615C120.927 620.685 124.94 625.124 126 631" data-len="369.78"/>
<path d="M632 573C629.967 569.627 631.795 567.685 635 566" data-len="8.93"/>
<path d="M774 566L774 637" data-len="71.00"/>
<path d="M441 595L449 568C455.663 577.442 457.874 589.941 454.251 601C452.549 606.194 448.16 611.385 448.289 617C448.435 623.306 452.186 630.005 453.964 636C458.337 650.743 462.524 664.715 468 679" data-len="145.17"/>
<path d="M487 569L492 575" data-len="7.81"/>
<path d="M794 569L794 641" data-len="72.00"/>
<path d="M554 570L550 574" data-len="5.66"/>
<path d="M801 570L801 642" data-len="72.00"/>
<path d="M892 572C887.164 576.665 890 592.539 890 599C890 623.828 893.095 650.514 890 675C882.723 672.543 877.383 670.844 870 674L875 681C869.436 685.135 865.264 681.325 859 681" data-len="149.56"/>
<path d="M934 571L937 575" data-len="5.00"/>
<path d="M1123 571L1126 587" data-len="16.28"/>
<path d="M892 572L897 578" data-len="7.81"/>
<path d="M929 572L932 576" data-len="5.00"/>
<path d="M822 573L823 645" data-len="72.01"/>
<path d="M974 596C962.834 592.783 952.767 583.977 947 574C967.819 568.8 969.917 599.25 987 601L972 575C983.222 570.65 997.621 595.531 993 605L988 602" data-len="164.81"/>
<path d="M702 575C707.837 573.631 714.655 575.809 710.257 583C706.808 588.64 700.378 593.323 695 597" data-len="37.15"/>
<path d="M829 574L830 648" data-len="74.01"/>
<path d="M1190 574C1187.96 582.836 1180.75 593.995 1183 603L1201 581L1202 588" data-len="65.72"/>
<path d="M809 575L812 581" data-len="6.71"/>
<path d="M5 603C12.0192 604.444 11.3481 599.895 16.4144 597.197C18.7185 595.97 24.716 597.515 24.0787 592.996C23.311 587.553 12.1353 588.11 15.3765 581.043C19.1363 572.846 30.0383 579.704 21 585" data-len="58.41"/>
<path d="M994 576L996 581" data-len="5.39"/>
<path d="M1077 577L1102.43 616L1110 632L1108 628" data-len="68.73"/>
<path d="M13 587L12 591C9.66973 588.834 5.69337 586.289 4.97068 582.98C3.52657 576.368 11.3625 579.111 14 581" data-len="27.76"/>
<path d="M336.985 578.877C341.894 579.395 342.381 585.589 336.985 585.238C331.043 584.852 330.518 578.195 336.985 578.877" data-len="23.79"/>
<path d="M997 578L1001 582" data-len="5.66"/>
<path d="M1053 578L1093 622L1091 612" data-len="69.66"/>
<path d="M818 581L821 579" data-len="3.61"/>
<path d="M853 579L850 581" data-len="3.61"/>
<path d="M1007 582L1010 579L1016 584" data-len="12.05"/>
<path d="M867 580L872 581" data-len="5.10"/>
<path d="M1159 599L1172 580L1174 589" data-len="32.24"/>
<path d="M35.1404 584.06C38.3099 583.516 40.1956 588.236 36.7963 589.248C33.3393 590.278 31.3559 584.71 35.1404 584.06" data-len="17.10"/>
<path d="M165 584L167 590" data-len="6.32"/>
<path d="M611 589L617 586" data-len="6.71"/>
<path d="M640 588L630 599" data-len="14.87"/>
<path d="M960 598C948.985 600.623 934.717 599.063 927 590C936.432 585.461 947.455 589.031 956 594" data-len="66.09"/>
<path d="M471 589L469 595" data-len="6.32"/>
<path d="M625 590L621 596" data-len="7.21"/>
<path d="M688 590L680 602" data-len="14.42"/>
<path d="M1099 590C1098.92 600.666 1109.49 610.444 1114.95 619C1117.58 623.13 1119.61 627.597 1124 630" data-len="48.08"/>
<path d="M143 592C137.249 600.692 132.41 609.537 131 620" data-len="30.74"/>
<path d="M351 592L358 601" data-len="11.40"/>
<path d="M1135 592L1145 602" data-len="14.14"/>
<path d="M913 603C908.281 601.391 905.609 598.719 904 594C909.168 593.515 911.55 596.786 914 601" data-len="26.34"/>
<path d="M1008 593C1020.29 596.596 1026.66 606.268 1030 618" data-len="34.91"/>
<path d="M1246 597L1245 593L1246 593C1246.65 604.307 1233.5 617.448 1227.13 626C1223.66 630.652 1218.98 635.264 1222 641L1254.44 610.536L1263 593" data-len="124.84"/>
<path d="M5 594L2 597" data-len="4.24"/>
<path d="M1009 594C1012.48 613.505 1032.6 625.298 1046.57 636.546C1070.81 656.052 1093.18 679.215 1112 704" data-len="152.36"/>
<path d="M1175 721C1184.87 707.414 1191.42 692.124 1198.44 677C1200.23 673.147 1203.74 670.033 1205.02 666C1207.53 658.126 1205.53 648.297 1207.5 640C1212.2 620.229 1226.07 604.406 1243 594" data-len="148.63"/>
<path d="M557 597L557 599L561 597" data-len="6.47"/>
<path d="M602 598L599 602" data-len="5.00"/>
<path d="M10 627C21.3178 623.12 25.8323 607.637 37 602.328C45.9845 598.057 58.3574 598.327 66.9992 603.363C70.7221 605.533 73.1936 609.516 77.0895 611.297C85.2121 615.01 96.2934 616.624 105 619L102 608" data-len="121.43"/>
<path d="M966 599L981 607C970.727 611.099 955.026 602.518 946 612C958.821 618.756 974.624 618.685 987 611L981 609" data-len="102.63"/>
<path d="M469 635L467.523 618L466 600L481 615" data-len="56.34"/>
<path d="M556 600L554 605" data-len="5.39"/>
<path d="M344 612C339.769 604.445 343.05 597.901 350 606" data-len="18.14"/>
<path d="M704 604L713 601" data-len="9.49"/>
<path d="M605 603L601 607" data-len="5.66"/>
<path d="M639 603L636 609" data-len="6.71"/>
<path d="M1157 603C1155.26 612.351 1153.45 628.466 1158 637" data-len="34.53"/>
<path d="M1183 603L1183 609L1184 606" data-len="9.16"/>
<path d="M316 608L311 605L319 610" data-len="15.26"/>
<path d="M1033 604L1046 635" data-len="33.62"/>
<path d="M929 615C915.067 608.126 935.734 599.362 934 613" data-len="24.55"/>
<path d="M1034 605C1048.42 609.787 1053 625.425 1053 639" data-len="41.71"/>
<path d="M995 606C1002.41 608.919 1015.47 619.29 1023 617" data-len="30.64"/>
<path d="M1181 607C1178.37 610.861 1177.04 613.598 1179 618L1183 609" data-len="21.70"/>
<path d="M406 608L411 613" data-len="7.07"/>
<path d="M546 639C557.854 625.299 566.018 613.861 584 608C584.971 613.892 580.485 619.249 577.333 624C566.77 639.92 549.513 645.539 538 660" data-len="121.18"/>
<path d="M683 610C688.453 610.308 690.846 607.73 693 614L698 615L696 618" data-len="20.98"/>
<path d="M197 614L206 609" data-len="10.30"/>
<path d="M711 610L717 609" data-len="6.08"/>
<path d="M1070 609C1075.15 614.294 1081.9 620.478 1080 627.667C1079.63 629.081 1083.71 626.09 1082 627" data-len="25.76"/>
<path d="M74 610L57 613.895L33 623" data-len="43.11"/>
<path d="M877 611L878 671" data-len="60.01"/>
<path d="M988 611L994 612" data-len="6.08"/>
<path d="M428 614L426 617" data-len="3.61"/>
<path d="M502 614L503 667" data-len="53.01"/>
<path d="M539 614L534 639" data-len="25.50"/>
<path d="M577 663C571.615 644.259 589.444 619.135 607 614" data-len="62.35"/>
<path d="M517 615L511 629" data-len="15.23"/>
<path d="M606 615L591 643C604.976 635.434 617.314 617.499 636 624C619.488 640.512 586.372 652.498 580 677L611 653C612.215 663.288 602.606 673.705 599 683" data-len="233.37"/>
<path d="M716 616L724 615" data-len="8.06"/>
<path d="M1072 637C1067.66 632.653 1061.75 627.699 1059.19 622.001C1058.06 619.467 1058.52 615.688 1062.06 615.828C1069.12 616.107 1072.6 625.567 1080 622" data-len="48.09"/>
<path d="M1262 615L1241 634L1262 628" data-len="50.16"/>
<path d="M912 616L917 625" data-len="10.30"/>
<path d="M1176 617L1177 621L1179 619" data-len="6.95"/>
<path d="M14 628C24.9066 631.489 35.2933 638.005 47 636.829C61.1727 635.407 67.6507 621.102 80 618.333C88.9634 616.323 102.161 625.821 110.039 629.366C120.658 634.143 126.461 643.505 135.298 649.767C138.387 651.956 143.14 653.496 146 651L143 650" data-len="152.75"/>
<path d="M279 618L276 627" data-len="9.49"/>
<path d="M242 700C245.536 694.828 262.092 680.653 260.249 674.318C258.869 669.573 247.327 672.719 244 672.907C233.891 673.478 215.498 661.92 216.167 650.144C216.37 646.568 223.439 645.447 226 644.11C236.386 638.69 249.179 634.022 259.985 641.8C271.632 650.184 264.327 659.304 267 670C273.289 665.209 283.991 658.214 287.413 650.961C289.473 646.594 286.983 642.479 287.133 638C287.46 628.269 296.059 620.26 305 618" data-len="237.34"/>
<path d="M364 618L368 624" data-len="7.21"/>
<path d="M1044 645C1034.05 638.526 1023.52 625.189 1011 624.109C1003.45 623.457 996.222 627.484 989 629.112C978.069 631.576 965.752 630.545 956 625L967 619" data-len="108.83"/>
<path d="M294 647C297.599 641.713 297.471 635.019 301.533 630.093C317.804 610.364 339.793 630.656 357 636" data-len="79.63"/>
<path d="M468 621L484.486 643L489 681" data-len="65.76"/>
<path d="M1094 621L1108 648" data-len="30.41"/>
<path d="M1177 621C1170.91 630.799 1168.09 645.546 1168 657" data-len="37.52"/>
<path d="M1196 623C1193.82 629.002 1189.15 634.606 1192 641L1203 632C1203.19 647.842 1188.3 665.043 1179.25 677C1174.4 683.419 1166.36 690.903 1172 699C1179.54 686.211 1187.07 670.168 1199 661L1201 671" data-len="167.37"/>
<path d="M107 629C107.795 638.992 109.877 648.674 104.066 657.945C99.6534 664.984 87.9071 666.859 81 670.648C77.0661 672.806 74.0749 676.111 70 678C62.6787 661.483 58.2021 640.947 76.0039 629.108C81.2213 625.638 87.2144 624.962 93 623" data-len="142.01"/>
<path d="M458 624L463 635" data-len="12.08"/>
<path d="M1123 624L1120 627" data-len="4.24"/>
<path d="M360 625C365.69 631.238 369.259 638.514 370 647" data-len="24.62"/>
<path d="M688 625L674 633" data-len="16.12"/>
<path d="M701 625L696 629" data-len="6.40"/>
<path d="M1059 625C1061.12 635.943 1064.59 643.346 1074 650.061C1086.87 659.249 1104.06 662.026 1106 681C1102.17 679.379 1094.45 671.374 1091 675L1091 676L1091 677" data-len="95.93"/>
<path d="M1077 626L1081 628" data-len="4.47"/>
<path d="M1083 627C1087.57 632.277 1098 642.014 1094 649C1096.45 650.432 1097.62 651.162 1098 648" data-len="31.88"/>
<path d="M150 654C146.869 655.613 146.091 656.585 147 660C152.722 653.028 147.267 645.204 151.742 638.001C160.664 623.64 172.345 632.651 184 628" data-len="66.27"/>
<path d="M1084 628L1083 633" data-len="5.10"/>
<path d="M101 629C90.8971 637.826 83.144 646.479 78 659" data-len="38.18"/>
<path d="M395 630L397 634" data-len="4.47"/>
<path d="M907 630L918 647" data-len="20.25"/>
<path d="M925 630C929.573 636.934 935.037 646.457 934 655" data-len="27.10"/>
<path d="M198 631L205 633L192.701 650.572L183.452 660.039L183 675L185 711" data-len="92.99"/>
<path d="M386 670L385 674L384.154 664.961L379 652L380 651L390 652C387.964 648.675 377.303 636.118 379.255 632.647C381.178 629.228 388.283 634.907 390 636.159C399.033 642.748 406.883 652.672 411 663" data-len="108.14"/>
<path d="M572 634L574 641" data-len="7.28"/>
<path d="M867 632L876 633" data-len="9.06"/>
<path d="M1079 632C1079.6 639.971 1087.7 643.809 1093 649" data-len="22.67"/>
<path d="M406 653L406 633C418.602 642.608 420.807 654.157 426 668L432 660" data-len="71.03"/>
<path d="M131 634L142 649" data-len="18.60"/>
<path d="M351 634C344.197 638.947 336.213 647.291 328 649.442C311.661 653.722 295.625 643.447 286 662C292.919 661.362 298.768 657.746 306 658.04C329.375 658.99 331.272 681.671 336 699C323.336 698.895 304.17 700.519 293.001 693.906C281.629 687.173 275.382 671.533 286 662" data-len="232.59"/>
<path d="M1241 634L1238 639L1240 637" data-len="8.66"/>
<path d="M1114 635C1132.23 660.607 1139.44 692.664 1149 722" data-len="94.20"/>
<path d="M1095 699L1099 703L1100 702C1092.01 693.122 1084.3 678.51 1073 673.513C1065.15 670.042 1056.29 671.324 1048 670.961C1035.94 670.432 1017.44 668.021 1007 662C1016.39 656.587 1031.49 656.785 1042 658.439C1048.57 659.473 1054.93 663.836 1061 660C1057.01 656.088 1052.47 650.948 1047 649.228C1028.91 643.54 1008.07 656.197 990.153 645.443C982.279 640.717 996.92 637.723 1000 637.286C1012.78 635.47 1023.74 639.164 1036 642" data-len="299.67"/>
<path d="M1112 636L1136 696" data-len="64.62"/>
<path d="M158 656C164.026 646.519 172.968 639.62 184 637" data-len="33.03"/>
<path d="M935 649L940 637C944.326 641.618 942.119 647.226 942 653" data-len="29.71"/>
<path d="M952 639L952 651" data-len="12.00"/>
<path d="M1190 639C1185.28 648.257 1171.53 670.975 1176 681" data-len="45.30"/>
<path d="M1237 639L1226 651L1240 645.61L1262 642" data-len="53.57"/>
<path d="M1218 640L1215 651" data-len="11.40"/>
<path d="M466 673L466 643L487 677" data-len="69.96"/>
<path d="M591 643L586 651" data-len="9.43"/>
<path d="M905 643L911 651" data-len="10.00"/>
<path d="M479 644L481 657" data-len="13.15"/>
<path d="M233 647C245.106 649.802 253.46 656.575 260 667" data-len="34.56"/>
<path d="M911 681C908.192 668.747 916.522 653.184 927 647L926 672C932.655 667.331 939.005 658.758 948 661L944 672C950.642 669.207 956.321 663.124 964 665L960 677C967.507 673.782 983.324 663.864 978 679L998 677L992 685" data-len="194.04"/>
<path d="M963 647L960 653" data-len="6.71"/>
<path d="M518 648L505 685" data-len="39.22"/>
<path d="M105 658C114.71 653.916 120.655 647.3 132 650" data-len="28.93"/>
<path d="M902 650L906 656" data-len="7.21"/>
<path d="M611 664L631 651L628 661" data-len="34.29"/>
<path d="M970 651L966 656" data-len="6.40"/>
<path d="M195 652C192.224 666.953 191.393 689.432 196 704L207 699" data-len="64.52"/>
<path d="M1099 652C1107.71 659.958 1113.94 671.759 1117 683L1118 679" data-len="40.42"/>
<path d="M106 653L109 656" data-len="4.24"/>
<path d="M138 653C126.439 662.414 115.081 674.619 113 690" data-len="45.74"/>
<path d="M390 653C398.351 663.36 406.704 674.099 407 688" data-len="39.69"/>
<path d="M36 654C43.8843 661.906 50.3761 670.953 53 682" data-len="33.19"/>
<path d="M1225 654C1219.34 660.158 1206.23 674.236 1210 683C1220.62 672.379 1239.23 654.302 1256 657C1249.23 674.465 1226.92 682.237 1212 690.785C1206.93 693.69 1203.23 698.468 1198 701L1201 700" data-len="165.95"/>
<path d="M984 656L980 661" data-len="6.40"/>
<path d="M34 692C26.5058 685.374 19.3266 677.408 15.6157 668C14.8248 665.995 11.8587 659.827 14.6427 658.252C17.4114 656.687 22.8837 661.305 25 662.746C34.3345 669.1 41.3013 678.328 45 689" data-len="86.34"/>
<path d="M365 672L361 673C364.973 668.153 360.785 663.242 359 658C368.084 655.731 376.08 664.13 382 670" data-len="47.38"/>
<path d="M993 657L992 662" data-len="5.10"/>
<path d="M989 658L986 661" data-len="4.24"/>
<path d="M147 660C147.932 664.203 148.707 668.673 148.542 673C147.661 696.008 121.341 698.916 105 707C96.9665 691.757 96.5955 678.975 102 663" data-len="117.73"/>
<path d="M183 704L157 663L182 660" data-len="73.73"/>
<path d="M449 660L457 682" data-len="23.41"/>
<path d="M629 662L626 667" data-len="5.83"/>
<path d="M672 662L657 671L659 664" data-len="24.77"/>
<path d="M1062 662L1066 667" data-len="6.40"/>
<path d="M890 675L897 680L899 663L910 675" data-len="42.00"/>
<path d="M284 664L302 670.337L322 685" data-len="43.88"/>
<path d="M438 664L448 687" data-len="25.08"/>
<path d="M149 665C153.598 667.349 155.944 671.948 158.999 676C167.953 687.877 177.467 707.13 179 722L160 713" data-len="86.72"/>
<path d="M1168 665L1163 685" data-len="20.62"/>
<path d="M534 666L531 680" data-len="14.32"/>
<path d="M351 678L347 679C349.988 675.354 348.661 673.101 347 669C352.14 667.747 355.848 670.047 360 673" data-len="29.00"/>
<path d="M642 668L634 677" data-len="12.04"/>
<path d="M1089 668L1091 672" data-len="4.47"/>
<path d="M255 698C271.816 693.275 289.192 702.558 291.695 721C292.791 729.07 289.005 737.739 289 746C278.29 742.938 261.368 742.052 253.329 733.787C233.25 713.144 259.389 679.173 279 669" data-len="192.24"/>
<path d="M1263 670L1254 684" data-len="16.64"/>
<path d="M202 671C215.376 671.771 231.377 671.161 238.721 685C240.878 689.064 240.717 693.7 242 698" data-len="54.89"/>
<path d="M547 671L542 685" data-len="14.87"/>
<path d="M657 671L650 679" data-len="10.63"/>
<path d="M676 671L671 677" data-len="7.81"/>
<path d="M203 672C204.373 682.632 205.567 694.899 216 700.583C219.821 702.664 235.26 701.231 236.263 704.322C237.778 708.99 229.087 719.114 226.684 723C221.008 732.179 218.302 743.012 213.027 752C209.488 758.031 203.887 762.512 201 769" data-len="128.16"/>
<path d="M440 673L440 687" data-len="14.00"/>
<path d="M925 673L924 678" data-len="5.10"/>
<path d="M943 673L939 679" data-len="7.21"/>
<path d="M693 674L688 679" data-len="7.07"/>
<path d="M173 675L176 678" data-len="4.24"/>
<path d="M365 675L372 684" data-len="11.40"/>
<path d="M387 675L390 684" data-len="9.49"/>
<path d="M339 676L347 679" data-len="8.54"/>
<path d="M714 676L705 683" data-len="11.40"/>
<path d="M0 677C8.35764 679.412 14.9273 684.978 21 691" data-len="25.52"/>
<path d="M960 677L955 682" data-len="7.07"/>
<path d="M579 678L574 684" data-len="7.81"/>
<path d="M978 679L973 684" data-len="7.07"/>
<path d="M1099 712L1072 697C1074.66 690.993 1066.36 686.571 1064 681C1074.95 678.33 1087.04 692.06 1094 699" data-len="86.08"/>
<path d="M1106 681C1109 684.701 1114.82 695.24 1120 692L1116 693" data-len="23.42"/>
<path d="M1208 681L1206 685L1210 683" data-len="8.94"/>
<path d="M561 682L558 689" data-len="7.62"/>
<path d="M1119 682C1127.06 693.133 1136.62 712.216 1138 726" data-len="48.37"/>
<path d="M1263 682L1259 688" data-len="7.21"/>
<path d="M398 683L402 689" data-len="7.21"/>
<path d="M719 683L729 684" data-len="10.05"/>
<path d="M876 683L873 685" data-len="3.61"/>
<path d="M1117 683L1119 691" data-len="8.25"/>
<path d="M81 684L90 697" data-len="15.81"/>
<path d="M1068 705C1072.82 706.643 1076.68 708.283 1079 713C1072.6 714.616 1065.91 711.881 1060 709.424C1047.21 704.104 1029.01 697.927 1022 685C1038.67 680.072 1056.43 693.11 1072 697" data-len="132.10"/>
<path d="M223 685C229.459 688.297 233.362 692.865 237 699" data-len="20.10"/>
<path d="M1206 685L1199 698" data-len="14.76"/>
<path d="M845 687L859 688" data-len="14.04"/>
<path d="M643 691L648 688" data-len="5.83"/>
<path d="M1190 723C1196.92 712.864 1213.73 691.244 1228 694L1224 709C1229.61 702.913 1237.6 690.477 1247 692C1239.04 708.81 1251.83 701.532 1262 697" data-len="123.83"/>
<path d="M526 692L515 711" data-len="21.95"/>
<path d="M414 694L422 726" data-len="32.98"/>
<path d="M612 695L601 705" data-len="14.87"/>
<path d="M512 696L510 708" data-len="12.17"/>
<path d="M585 696L583 700" data-len="4.47"/>
<path d="M1120 696L1125 705" data-len="10.30"/>
<path d="M1015 722L1012 697C1023.27 702.365 1031.74 713.449 1036 725" data-len="62.95"/>
<path d="M1168 697L1171 702C1165.81 707.993 1164.61 715.255 1164 723" data-len="28.38"/>
<path d="M399 721L397 723C396.856 713.434 390.247 706.714 385 699C398.785 695.526 411.062 709.913 419 719" data-len="71.66"/>
<path d="M474 698L475 703" data-len="5.10"/>
<path d="M1 699L18 714" data-len="22.67"/>
<path d="M70 699C85.9278 700.73 101.027 721.574 101 737" data-len="52.62"/>
<path d="M252 699C263.076 709.569 272.227 715.705 279 730" data-len="41.43"/>
<path d="M426 699C435.896 707.212 434.733 715.95 438 727L450 715C452.577 721.881 452.017 729.004 450 736" data-len="69.55"/>
<path d="M615 706L632 699" data-len="18.38"/>
<path d="M998 723C996.874 719.249 991.729 703.684 994.118 700.708C997.952 695.933 1009 710.539 1011 713" data-len="45.59"/>
<path d="M21 700L29 708" data-len="11.31"/>
<path d="M65 700L78 732" data-len="34.54"/>
<path d="M355 700L360 703" data-len="5.83"/>
<path d="M468 700L470 706" data-len="6.32"/>
<path d="M1167 700L1167 704" data-len="4.00"/>
<path d="M459 701L464 709" data-len="9.43"/>
<path d="M493 702L484 717" data-len="17.49"/>
<path d="M1101 702L1118 723" data-len="27.02"/>
<path d="M1197 702L1194 708" data-len="6.71"/>
<path d="M32 703L35 708" data-len="5.83"/>
<path d="M529 703C524.294 708.752 524.943 712.974 525 720" data-len="17.98"/>
<path d="M532 724C535.992 715.827 540.435 708.333 548 703C549.854 709.33 548.162 718.837 546 725" data-len="49.09"/>
<path d="M640 707L651 704" data-len="11.40"/>
<path d="M1241 704L1241 707L1246 705" data-len="8.39"/>
<path d="M178 731C161.312 730.626 149.178 725.13 142 709C153.9 703.733 161.422 705.794 173 710" data-len="77.06"/>
<path d="M195 705L194 709" data-len="4.12"/>
<path d="M981 727L971 706C981.187 703.455 989.959 713.104 996 720" data-len="53.44"/>
<path d="M202 707C198.272 719.94 193.215 729.291 199 743L214 730L216 741" data-len="68.15"/>
<path d="M1034 720C1035.46 717.263 1035.1 709.628 1037.6 708.161C1043.82 704.516 1051.98 722.15 1054 726" data-len="38.65"/>
<path d="M1101 707L1106 714" data-len="8.60"/>
<path d="M1241 707L1233 717" data-len="12.81"/>
<path d="M215 750C231.662 744.726 231.728 718.969 245 708" data-len="52.89"/>
<path d="M1262 709L1254 720" data-len="13.60"/>
<path d="M1222 710L1216 721" data-len="12.53"/>
<path d="M62 736L58 738C62.9069 729.721 49.0755 719.312 45 712C57.898 708.75 64.9316 721.305 75 726" data-len="69.46"/>
<path d="M943 732L929 723C940.1 719.719 948.873 724.32 959 728L952 712C962.102 709.839 968.7 718.199 977 722" data-len="92.86"/>
<path d="M499 713L495 717" data-len="5.66"/>
<path d="M549 723C555.173 717.37 563.309 711.504 572 714L565 726L585 722" data-len="60.13"/>
<path d="M1079 713L1088 718" data-len="10.30"/>
<path d="M129 714L135 726" data-len="13.42"/>
<path d="M348 715L357 718" data-len="9.49"/>
<path d="M384 729L370 716C379.699 713.133 387.021 718.414 396 721" data-len="46.11"/>
<path d="M1061 715L1071 723" data-len="12.81"/>
<path d="M122 716L127 723" data-len="8.60"/>
<path d="M296 744C299.986 733.999 305.595 726.257 315 720.63C317.215 719.304 323.648 715.292 325.799 718.618C329.442 724.252 319.422 731.362 323 738C329.375 733.796 336.212 730.341 344 730.04C345.963 729.964 350.64 729.529 351.079 732.318C351.753 736.6 343.803 742.134 342 746L366 747C363.709 749.814 354.922 754.694 359 758L358 755" data-len="152.64"/>
<path d="M102 732L107 722C115.434 727.995 117.993 736.054 118 746" data-len="38.76"/>
<path d="M139 722L142 730" data-len="8.54"/>
<path d="M180 723C185.108 737.192 187.315 755.01 188 770" data-len="47.84"/>
<path d="M399 723L404 730" data-len="8.60"/>
<path d="M596 725L585 729" data-len="11.70"/>
<path d="M453 732L463 726" data-len="11.66"/>
<path d="M908 728L922 733" data-len="14.87"/>
<path d="M959 728L963 732" data-len="5.66"/>
<path d="M43 742L45 746L40 744C44.4409 738.39 36.6819 736.825 37.8819 731.319C39.5191 723.807 55.8924 736.002 58 738" data-len="47.71"/>
<path d="M602 730L614 730" data-len="12.00"/>
<path d="M486 735L494 730" data-len="9.43"/>
<path d="M1098 730L1097 740" data-len="10.05"/>
<path d="M364 731L376 734" data-len="12.37"/>
<path d="M6 732C18.4157 732.646 14.1235 740.861 3 735" data-len="20.50"/>
<path d="M471 732L466 737" data-len="7.07"/>
<path d="M902 735L898 735L902 735" data-len="8.00"/>
<path d="M500 737L510 735" data-len="10.20"/>
<path d="M902 735L906 736" data-len="4.12"/>
<path d="M1020 735L1022 738" data-len="3.61"/>
<path d="M1206 735L1197 752" data-len="19.24"/>
<path d="M1012 736L1016 741" data-len="6.40"/>
<path d="M1086 736L1091 746" data-len="11.18"/>
<path d="M1107 736L1106 741" data-len="5.10"/>
<path d="M319 737L322 739" data-len="3.61"/>
<path d="M61 739L69 753" data-len="16.12"/>
<path d="M319 739L312 747" data-len="10.63"/>
<path d="M1037 739C1046.83 744.159 1060.95 754.364 1060 767" data-len="38.19"/>
<path d="M1056 739C1066.09 741.379 1071.74 748.432 1075 758" data-len="28.19"/>
<path d="M1038 740C1039.84 750.806 1045.76 762.759 1039 773C1034.97 764.507 1030.47 756.192 1021 753L1022 773" data-len="81.81"/>
<path d="M169 778C168.221 770.386 165.043 762.746 159 758L160 741L174 752L175 752L178 748L183 753" data-len="70.87"/>
<path d="M1057 741C1059.66 746.998 1061.9 753.526 1060 760" data-len="19.66"/>
<path d="M1215 741L1206 753" data-len="15.00"/>
<path d="M39 761C34.2978 757.456 24.5786 752.233 22.1759 746.769C19.2747 740.171 36.4406 742.92 39 744" data-len="42.29"/>
<path d="M389 742L397 745" data-len="8.54"/>
<path d="M407 742L418 745" data-len="11.40"/>
<path d="M140 759L141 763L137 762C140.268 754.69 132.418 751.562 133.878 745.319C134.674 741.915 139.948 743.657 142 744.482C148.639 747.151 154.336 752.726 159 758" data-len="57.06"/>
<path d="M199 743L201 766" data-len="23.09"/>
<path d="M1191 743L1190 750" data-len="7.07"/>
<path d="M226 744C231.481 745.871 226.82 751.556 229 756L224 759L226 755" data-len="23.73"/>
<path d="M1131 744C1128.13 752.486 1126.42 763.276 1129 772L1147 745L1150 770C1155.94 764.318 1166.15 754.601 1175 758L1167 776C1174.83 773.151 1182.27 767.547 1191 769L1184 779" data-len="172.57"/>
<path d="M230 756C232.732 753.508 248.279 740.844 251.839 746.618C253.086 748.642 250.911 751.879 250.575 753.955C250.208 756.218 250.267 757.073 249 759L249 755" data-len="42.58"/>
<path d="M1115 777C1113.34 766.398 1120.46 750.109 1130 745" data-len="37.10"/>
<path d="M1218 758L1232 745" data-len="19.10"/>
<path d="M45 746L55 756" data-len="14.14"/>
<path d="M334 752L341 747" data-len="8.60"/>
<path d="M1 749C6.55855 749.558 11.3527 751.305 13 757L8 757" data-len="20.47"/>
<path d="M1234 757L1250 749" data-len="17.89"/>
<path d="M91 750L93 754" data-len="4.47"/>
<path d="M83 751L88 757" data-len="7.81"/>
<path d="M253 757C254.837 755.693 267.202 747.841 267.964 753.333C268.407 756.528 264.042 760.91 263 764C271.947 761.174 280.492 753.927 290 759C287.944 761.056 276.606 770.23 283 771L282 768" data-len="77.65"/>
<path d="M177 752L180 768" data-len="16.28"/>
<path d="M174 753L177 756" data-len="4.24"/>
<path d="M991 769L988 764C994.016 761.986 999.828 768.131 1005 771C1006.22 766.187 1002.62 759.648 1004.64 755.362C1007.65 749.011 1017.6 764.763 1019 767" data-len="61.80"/>
<path d="M1100 771L1103 753L1114 773" data-len="41.07"/>
<path d="M1081 754L1082 762" data-len="8.06"/>
<path d="M114 780C112.136 777.703 102.978 769.173 108.333 766.618C111.854 764.938 117.266 767.87 121 768L115 756C122.961 753.669 130.688 757.202 137 762" data-len="66.57"/>
<path d="M360 757L382 758" data-len="22.02"/>
<path d="M13 757L28 765" data-len="17.00"/>
<path d="M356 757L351 761" data-len="6.40"/>
<path d="M80 758L86 764" data-len="8.49"/>
<path d="M224 759L212 779" data-len="23.32"/>
<path d="M248 759L235 777" data-len="22.20"/>
<path d="M984 759L988 764L989 761" data-len="9.57"/>
<path d="M1217 820L1215 824C1222.37 819.292 1222.08 800.899 1225.07 793C1231.21 776.756 1246.04 766.436 1262 761" data-len="88.21"/>
<path d="M141 763L152 782" data-len="21.95"/>
<path d="M0 764C8.57309 765.558 9.05146 771.803 1 775" data-len="17.84"/>
<path d="M263 764L253 778" data-len="17.20"/>
<path d="M374 767L387 765" data-len="13.15"/>
<path d="M285 770C290.741 766.991 298.666 765.258 305 767L297 777L319 777L308 788" data-len="71.02"/>
<path d="M1090 767L1100 781" data-len="17.20"/>
<path d="M1146 768L1143 781" data-len="13.34"/>
<path d="M122 769L134 784" data-len="19.21"/>
<path d="M106 770L105 774L107 772" data-len="6.95"/>
<path d="M966 770L975 773" data-len="9.49"/>
<path d="M94 771L104 772" data-len="10.05"/>
<path d="M280 771L271 781" data-len="13.45"/>
<path d="M1263 771L1248.31 787L1246.46 794.119L1262 788" data-len="45.78"/>
<path d="M1129 772L1130 779" data-len="7.07"/>
<path d="M1166 776L1162 781" data-len="6.40"/>
<path d="M297 777L289 784" data-len="10.63"/>
<path d="M1071 777L1077 783" data-len="8.49"/>
<path d="M60 778L73 786" data-len="15.26"/>
<path d="M79 778L87 784" data-len="10.00"/>
<path d="M93 778L108 782" data-len="15.52"/>
<path d="M1060 779L1067 783" data-len="8.06"/>
<path d="M1169 832C1172.48 809.218 1183.47 787.633 1208 782" data-len="67.69"/>
<path d="M1 799C10.3772 797.92 18.2231 808.837 25 814C28.2333 804.036 16.5303 791.467 11 784C29.1308 782.947 35.9463 805.218 44 817L48 803C55.0739 806.38 55.7609 813.581 59 820C69.4513 812.383 69.5555 821.467 69 831" data-len="170.86"/>
<path d="M1207 783L1186 826" data-len="47.85"/>
<path d="M42 784L55 790" data-len="14.32"/>
<path d="M106 791C117.329 796.369 128.235 803.259 133.866 815C136.985 821.505 136.763 829.132 141 835C149.53 819.629 150.451 806.359 168 797L160 829L189 808L185 830L181 832L182 828" data-len="206.33"/>
<path d="M318 793L330 791" data-len="12.17"/>
<path d="M104 793L130 836" data-len="50.25"/>
<path d="M1245 794L1241 800L1242 796" data-len="11.33"/>
<path d="M216 795L209 804" data-len="11.40"/>
<path d="M1143 797L1140 800C1139.92 797.265 1140.27 796.916 1143 797" data-len="9.56"/>
<path d="M1144 797L1161.04 812L1168 830" data-len="42.00"/>
<path d="M74 798L81 806" data-len="10.63"/>
<path d="M84 798L87 803" data-len="5.83"/>
<path d="M232 798L223 806" data-len="12.04"/>
<path d="M1140 800L1149 830" data-len="31.32"/>
<path d="M1241 800L1233 811" data-len="13.60"/>
<path d="M0 801L10 815L9 812" data-len="20.37"/>
<path d="M57 802L70 807" data-len="13.93"/>
<path d="M236 809C242.407 804.442 248.239 803.005 256 803" data-len="21.27"/>
<path d="M1262 804L1254 811" data-len="10.63"/>
<path d="M1194 815C1195.64 813.602 1197.25 812.245 1199.02 811.019C1212.16 801.958 1207.15 821.526 1207 829L1215 825" data-len="43.55"/>
<path d="M1108 833L1098 822C1108.75 818.823 1117.24 825.918 1127 829C1126.14 825.272 1120.23 814.926 1122.24 811.643C1125.87 805.703 1141.24 821.056 1144 823" data-len="90.07"/>
<path d="M0 812L5 814" data-len="5.39"/>
<path d="M10 815C18.0035 823.071 20.5429 830.945 25 841" data-len="30.24"/>
<path d="M27 815L33 828" data-len="14.32"/>
<path d="M98 842L93 835C100.587 832.821 106.262 837.222 113 840C113.537 830.841 105.79 824.006 101 817C109.014 815.711 114.936 821.326 122 824" data-len="78.82"/>
<path d="M1219 823C1227.85 818.289 1240.03 814.054 1250 817L1238 831" data-len="50.77"/>
<path d="M44 818L46 826" data-len="8.25"/>
<path d="M186 830C194.779 823.622 211.076 815.032 222 820L206 836" data-len="61.50"/>
<path d="M1145 818L1142 821" data-len="4.24"/>
<path d="M244 825L254 820" data-len="11.18"/>
<path d="M1263 824L1262 830" data-len="6.08"/>
<path d="M259 829L273 825" data-len="14.56"/>
<path d="M161 829L157 838" data-len="9.85"/>
<path d="M1206 830L1204 834" data-len="4.47"/>
<path d="M181 832L177 837" data-len="6.40"/>
</svg>
